<svg xmlns="http://www.w3.org/2000/svg" viewBox="0 0 1280 1280"><g stroke-width="0"><path d="M609 317.5c-48.5 5.6-97.1 23-136.9 49.2-52.6 34.5-90.8 81.9-114.6 142.3-13.3 33.9-19.5 67.2-19.5 105.6 0 48.2 10.5 90.9 33.2 135.7 45.8 90.1 135.2 152.9 236.3 166.2 13.9 1.8 48.4 2.1 62.7.5 94-10.6 174.9-59.3 224.1-135 26.1-40.3 42.9-88.2 47.7-135.9 1.5-15 1.2-45.5-.5-61-2.8-24.9-9.7-53.4-18-74.7-23.6-60.1-59.4-106-110.5-141.5-33.1-23.1-79.7-42-119-48.3-26.4-4.3-62.9-5.6-85-3.1m63.5 2c18.8 2 38 5.8 53.5 10.5 46.1 14.2 83.2 35 117.3 65.8 17.7 16 30.8 31.6 45.9 54.6 9.1 13.9 23.9 42.8 29.1 56.6 3.9 10.5 9.7 30 9.6 32.1-.1 1.7.1 2.2-4.4-12.6-11.9-38.6-28.1-67.7-57-102.6-69.7-84.1-190.1-122.2-298-94.4-61.3 15.8-110.3 45.5-152.9 92.8-4.4 4.8-10.1 12-12.7 16s-5.7 8.3-6.7 9.7c-1.1 1.4-2.6 3.9-3.5 5.5-.8 1.7-2.4 3.9-3.6 4.9l-2.1 1.9 1.7-3.4c2.3-4.8 14.8-23.4 19.7-29.4 24-29.4 56.3-56 89.6-73.8 33.1-17.6 79.4-31.8 112.4-34.3 4.5-.4 8.3-.8 8.5-1 1.2-1 41.4-.2 53.6 1.1m6.5 5c50.2 6.5 99 26.8 140.1 58 13.2 10.1 37 33.9 47.5 47.5 28.7 37 47 75.8 55.8 117.8 4.4 21.1 5.9 36 5.8 59.7 0 46-8.2 82.8-27.1 122-26.9 55.6-71.3 99.6-130.7 129.3-41.7 20.8-86 31.5-131.4 31.5-22 0-38.3-1.9-59-6.9-70.1-17.1-128.1-55.3-170.8-112.4-10.5-14.1-17.5-25.8-25.7-42.5-8.6-17.5-13.3-29.9-18.1-47.4-8-29.2-10.9-53.7-10.1-85.4.7-30.8 4.7-52 15.7-84.2 9.2-27.1 27.8-61 45.7-83.5 8.6-10.8 30.4-32.7 40.8-41.1 44.9-36.2 98.1-57.9 156-63.5 17.3-1.6 48.4-1.1 65.5 1.1M376.7 481.6c-20.9 41.7-30.8 88-29.4 136.8 1.3 45.5 11.1 82.9 33.4 126.8 11.4 22.5 29.4 46.9 50.8 68.8 5.7 5.8 12 12 14.2 13.7 14.5 12.1 32.4 25.7 38.3 29.2 17 10 25.2 14.5 34.5 18.8 23.3 10.7 24 10.9 45 17.6 13.1 4.2 43.4 9.7 57.8 10.5 22.4 1.4 52.6-.1 66.2-3.3 3.3-.8 8.5-1.9 11.5-2.5l10-2c10.4-2 32.7-9.3 46-15 37.9-16.2 65.3-34 91.7-59.4 21-20.2 35.4-38.2 48.1-60.1 24.3-42 36.8-82.8 40.3-132.5 1.5-20.5.2-44.7-3.6-67-1.3-8-2.7-16.1-3-18-1.2-8.4 1.5 2.9 3.9 16 4 21.8 4.9 35.2 4.3 59-1.3 47.3-10.6 84.8-31.2 126.5-36.2 73.1-101.5 126.8-182.5 150-80.5 23.1-161.9 11.9-233.8-32.1-71.7-43.9-121.2-113.6-137.6-193.9-4.8-23.4-6-34.6-6-59 0-20 .4-25.4 2.7-41 3.4-22.1 7.4-38.7 13.9-57 4.8-13.6 20.4-47.2 21.4-46.2.3.3-2.8 7.2-6.9 15.3"/><path d="M620 333.6c-38.1 3.5-79.9 16.1-112.1 33.9-23.9 13.2-40.5 25.8-60.9 46.4-21.8 22-38.7 45.3-50.9 70.5-19.9 40.8-28.5 77.8-28.5 121.6.1 29.4 3.2 50.5 11.5 77.5 6.4 20.6 12.5 34.2 24.6 54.7 10.7 18 23.4 33.9 41.8 52.4 33.7 33.8 72.8 57.6 117 71.2 46.7 14.4 94.8 15.8 142.2 4.2 33.9-8.4 57.3-18.3 87.3-36.8 67.7-42 111.4-108.4 121.5-184.8 8.9-67.2-6.5-133.1-44.5-190.1-42.6-64-110.4-106.4-190-118.8-10.1-1.6-48.7-2.8-59-1.9m40.5 5.5c110.7 9.5 199 78.2 233.8 182 4.1 12.3 8.8 31.8 11.4 47.4 2.6 15.8 2.6 60.2 0 76.3-4.3 26.5-11 48.1-22.2 70.7-18.9 38.4-42.5 66.8-77 92.5-16.4 12.3-28.3 19.5-46 28.1-41.4 19.9-77 28.3-120.5 28.3-22.8.1-34.1-1.2-55-5.9-50.3-11.4-98.4-38.7-136.2-77.1-41-41.7-63.6-87.8-72-146.9-.7-5.2-1.3-18.4-1.3-31 .1-23.5 1.2-34.4 6.1-56.4 17.8-80 70-146.6 141.9-181.2 43.5-20.9 93.1-30.6 137-26.8"/><path d="M760.4 399.7c-4.5 14.2-9.6 20.7-20.7 26.1-3.7 1.8-6.7 3.6-6.7 4 0 .5 2.7 2.1 6 3.7 9.9 4.7 14.1 9.6 18.6 21.4 2.1 5.5 4.3 10 4.9 9.8.5-.2 1.9-3.5 3.1-7.3 2.6-8.7 5.4-14.1 9-17.8 2.8-2.8 11.7-7.6 14.2-7.6 3.2 0 .6-2.9-5-5.5-3.6-1.7-8.7-5.4-12-8.5-4.8-4.7-5.9-6.5-7.8-12.8-1.2-3.9-2.4-7.2-2.6-7.2-.3 0-.7.8-1 1.7m4.9 16.9c2.1 4 7 8.2 12.6 10.7l4.5 2-5 1.8c-6.7 2.5-10.6 7.3-13.7 16.7-1.4 4.2-2.7 7-3 6.2-.2-.8-1-3.8-1.6-6.5-2.2-9-8.2-15.2-16-16.2-5.1-.7-5.2-1.6-.3-3.1 6.9-2.2 12.8-7.5 16.3-14.9l3.3-6.8.6 3.5c.4 1.9 1.4 4.9 2.3 6.6"/><path d="M708.5 426.9c-3.8 2.1-14.9 8.5-24.5 14.3s-22.9 13.6-29.5 17.5c-16.3 9.5-43.6 26.2-45.7 28.1-3.6 3.1-.9 3.5 16.9 2.8l17.4-.6-8.8 8.3C612.4 517.9 578 547 575.5 547c-.5 0-5.1-3.5-10.2-7.8-32.9-27.8-39.4-33.2-41.7-34.7-2.5-1.7-2.8-1.7-4.6 0-1.1 1-2.4 3.4-3 5.4-.6 2.1-1 19.9-1 43.4V593l-4.7 3.3c-6.1 4.2-43.2 32-45.8 34.4-6.2 5.6-5.9 5.9-5.2-6.2 2.5-42.1 25.9-92 58.2-123.9 9.5-9.3 31.7-26.3 44-33.5 19.5-11.5 39.9-20.6 61.9-27.5 6.5-2.1 11.5-4.1 11-4.5-1.3-1.1-24.6.5-34.4 2.3-12.7 2.4-21.9 5.2-38 11.4-55.2 21.1-99.5 61.5-122.8 111.8-10 21.7-15.3 41.7-17.4 66.1-1.4 16.3-.3 33.5 3.3 50.8 2.4 12 11.3 38.9 16.3 49.8 11 23.6 27.3 43.9 51.4 63.9 40.9 34.1 94.8 51.6 152.6 49.5 31.2-1.1 57.4-6.2 83.1-16.2 45.7-17.6 81.5-45.6 103.2-80.6 10.9-17.5 21.1-42.4 24.8-60.4 2.2-10.8 3.1-36.6 1.6-48-2.4-17.6-12.6-52.3-14.8-50.1-.3.3-.5 7.4-.4 15.8.2 17.6-1.1 33.5-4 45.7-5.5 23.6-17.4 48.4-31.6 66.1-4.1 5.1-20.5 22.3-20.7 21.8-.1-.2 0-10.5.2-22.9l.3-22.6 8.7-9.5c19.4-21.1 34.5-47 41.3-70.7 1-3.6 1.6-6.7 1.4-7-2.6-2.5-44.8 20.5-55.1 30-4.2 3.9-3.3 1.7 2-4.5 7.9-9.3 28.2-36.5 36.5-48.9C833 562 847 537.1 847 533.8c0-4.2-2.3-3.7-15.5 3.2-13.8 7.1-25 14.4-36.7 23.9l-8.8 7v-33.2c0-18.7.4-34.7 1-36.7 1.2-4.4 4.4-8.8 11.6-16.2 5.3-5.4 6.3-8.2 2.6-7.6-1 .1-2.4-.2-3.2-.7-1.7-1.1-51.2-2-57.7-1-2.3.3-5.2 1.4-6.5 2.5l-2.3 1.8 5.6 5.9c10.8 11.3 10.3 8.9 10.9 54.1.4 33.4.7 39.4 2 40.2.8.5 7 1 13.8 1 6.7 0 12.2.3 12.2.6 0 1-14.5 16.4-15.4 16.4-.5 0-3.5-2.5-6.7-5.5l-5.8-5.5h-19.8c-10.9 0-20.4.4-21.2.9-1.1.7.1 2.6 5.4 8.8 7.1 8.1 25 27.6 32 34.8 2.2 2.2 7.2 7.7 11.1 12.1l7.1 7.9-9.2 10-9.3 9.9-21.8-21.1c-12.1-11.5-26.3-25-31.6-29.9-25.2-23.2-50.4-46.9-51.1-48.2-.7-1 1.6-3.9 8-10.5 9.5-9.8 17.8-19.9 25.7-31 2.6-3.8 5-6.7 5.2-6.4.2.2 1.7 6.4 3.4 13.8 3.7 16.9 5.3 22.2 6.7 22.6 1.4.5 3.9-8.9 10.3-39.2 2.8-13.2 7.1-33 9.5-44 9.9-45.1 10.7-50.3 8-51.2-.5-.1-4.1 1.5-8 3.6m3 4.8c-4.3 10.1-6 16.2-14.9 53.3-2.8 11.7-7 32.8-8.1 40.5-1 6.8-1.6 4.8-5.1-15.8-1.6-9.2-3.2-16.7-3.6-16.7-.5 0-.8.6-.8 1.4 0 1.9-16.3 26.4-24.1 36.2-19.4 24.4-54 53.8-116.8 99.4-52.8 38.3-62.5 47.6-70.7 67.9-7.5 18.5-4.7 39.3 8.1 60 2.5 4.1 4.4 7.5 4.2 7.7-1.3 1.4-15.6-18.8-19.6-27.7-9.9-22-9.3-44.4 2-67.9 7.5-15.8 16.6-28.3 32.8-45.3 10.9-11.4 10.8-11.4-4.8.1-17.1 12.6-28.4 24.7-38 40.7-4.4 7.3-10.1 23.4-10.1 28.5 0 5.4-1.6 3.2-4.3-5.8-14.3-48.3-8.3-95.8 18.1-142.5 29.4-52.1 81.8-91.6 139.4-105.1 20.4-4.8 37.9-6.2 20.3-1.6-32.6 8.4-68.4 26.8-94.1 48.2-35 29.2-57.3 62.5-68.9 102.9-5 17.3-6.5 27.7-7.2 49.9l-.6 19.5 10.8-11.3c10.4-10.9 29.8-27 43.5-36.2 3.6-2.4 11.5-8 17.5-12.5 6.1-4.5 20.7-15.3 32.5-24 41.8-30.7 78.7-61.8 100.2-84.6 7-7.4 12.5-13.5 12.3-13.7s-2.6.4-5.5 1.2c-6.7 2-31.9 6.8-33.3 6.3-.5-.1 4.6-3.4 11.4-7.2 27.5-15.2 65.1-38.3 73.9-45.4 3.1-2.5 4.5-2.7 3.5-.4m75.2 51.5c-9.7 9.5-9.7 9.6-10 53.6l-.2 36.2H756l-.1-8.8c0-4.8-.4-22.2-.8-38.7l-.6-30-3-5.4c-1.6-3-4.9-7-7.3-9l-4.3-3.6 26.3-.5c14.5-.3 26.5-.4 26.6-.3.2.1-2.5 3-6.1 6.5m-225.9 60.3c4.5 3.8 8.2 7.4 8.2 8s-.9 1.6-2 2.3-11.7 8.4-23.5 17.2-21.7 16-21.9 16c-.6 0-.5-64.8.1-71.7l.5-5.2 15.1 13.2c8.4 7.3 18.9 16.3 23.5 20.2m279.4-4.1c-7.2 12.1-74.9 98.8-77 98.5-.4-.1-4.1-3.8-8.2-8.3s-14.7-15.8-23.5-25.1c-14.7-15.5-15.7-16.8-12.6-16.2 1.8.4 8.7.7 15.3.7h12l7.2 7c4 3.8 7.7 7 8.3 7s5.3-4.8 10.6-10.8c17.9-20.2 35.9-36.1 53.7-47.4 5.2-3.3 15.1-8.8 15.8-8.8.2 0-.5 1.5-1.6 3.4M647.6 586c9.2 8.5 20.4 18.8 24.9 22.9 4.4 4 18.1 17.1 30.5 29l22.6 21.6-21.4.5-21.4.5 2.7 2.5c5.4 4.9 14.5 16.1 14 17.1-.4.5-5 .9-10.3.9h-9.7l-8.5-7.3c-4.7-3.9-19.1-16.4-32.1-27.7s-28.5-24.6-34.5-29.7c-6-5-12-10.1-13.4-11.2l-2.5-2.2 3.5-2.8c14.1-11.7 37.6-30 38.2-29.8.3.1 8.2 7.2 17.4 15.7m202.5 31.5c1.5 12.4.6 40.2-1.6 50.5-7.2 32.3-23.7 61.7-47.4 84.2-35.3 33.7-86.6 58-138.6 65.9-18.1 2.8-50.3 3-67 .4-50.3-7.7-91.3-29.5-110.1-58.6-7.2-11-13.4-29.4-13.4-39.5 0-3.8 1.7-2.8 3.6 2.1 6.2 16.3 35.3 42.1 63 55.8 36 17.9 85.3 23.2 135.1 14.6 37.2-6.4 80.9-25.8 114-50.5 13.4-10.1 23-20.2 32.8-34.9 18.2-27.1 25.8-53.4 25.8-89.5 0-16.4.2-18 1.3-14.3.7 2.3 1.8 8.5 2.5 13.8m-17.8-8.7c-1.1 1.5-3.1 4.8-4.3 7.2-6.4 12.5-30.2 44.9-42.8 58.2-10.4 10.9-39.1 37.8-40.4 37.8-.9 0-43-39.2-47.2-43.9-1.1-1.1-1.7-2.3-1.4-2.6.7-.8 24.3-1.3 30-.7 3.9.4 5.6 1.3 11.3 6.5l6.6 6 16.7-16.5c9.2-9 21.1-20 26.5-24.2 10.1-8 45.9-31.8 46.6-31 .3.2-.5 1.7-1.6 3.2m-248.5-.6c-3 2.3-2.7 6.8.3 6.8 2 0 2.1.4 1.5 5.2-.3 2.9-.6 11.8-.6 19.7 0 15.5-.6 18.7-1.1 5.6-.1-4.4-.7-8.8-1.2-9.9-.7-1.4-.6-1.6.3-1.1.8.5 1.1.3.8-.5-.7-2.2-2.8-2.3-2.8-.2 0 1.1-.7 2.2-1.5 2.6-.8.3-1.5 1-1.5 1.5 0 .6.8.7 1.8.4 1.6-.7 1.6-.6 0 1.1-1 .9-1.8 2.4-1.8 3.1s-.7 2-1.5 2.9c-1.4 1.3-1.4 1.6.1 2.4 1.1.6 1.3 1.2.6 1.6-.6.4-.9 1.4-.6 2.4.5 1.3.4 1.4-.4.3s-1.4-1-3.3.9l-2.4 2.2 2.5-.6c2.5-.7 2.5-.7.5 1-2 1.6-2 1.6.3 1.1 1.2-.3 2-.1 1.6.4-.3.5-1.1.9-1.7 1-2.2.1-7.1 7-7 9.8 0 1.4-.1 1.8-.4.8-1.4-5.2-2.1.2-2.3 15.5 0 9.5-.3 17.4-.5 17.7-.3.2-.5-17.6-.5-39.7v-40.1l10.3-7.5c5.6-4.1 10.6-7.5 11.1-7.5.6-.1.3.5-.6 1.1m21.3 23c15.1 13.3 42.9 37.2 53.6 46.1 5 4.2 9.4 8.1 9.8 8.7.4.7 2 2 3.6 2.9 2.9 1.8 2.7 1.8-15.2 2.3-24.4.7-24.4.7-11.6 13.1 5.3 5.2 9.7 9.7 9.7 10 0 1.3-38.5-.5-43.2-1.9-4.8-1.6-13.9-7.5-19.5-12.7l-3.3-3.1v-78.7l2.8 1.9c1.5 1.1 7.5 6.2 13.3 11.4m-49.9 78.4c3.5 6.4 11.5 11.8 22 14.8 3.1.9 6 2.1 6.3 2.6.4.7-10.7 1-31.8 1-33.3 0-53.7-.8-53.7-2 0-.4 2.3-1.7 5.2-2.9s7.3-3.5 9.9-5.2c7.6-4.8 7.9-6.4 7.9-37.7 0-31.4-2.3-26.1 18-40.6l13.5-9.7.5 38.3c.4 33.5.7 38.7 2.2 41.4m-42.8.5c-.9 1-6.3 4.4-12.1 7.5-5.8 3.2-10.7 6.3-11 7-.2.6.3 2.9 1.2 4.9 1.9 4.6 1.1 5.9-1.5 2.5-4.4-5.7-8.2-15-8.3-20.4-.2-10.6 10.2-26.1 26.8-39.9l6-5 .3 20.8c.2 18 0 21-1.4 22.6m187.2-14.3c1.5 1 1.1 4.4-.8 7-1.5 2.2-1.5 2.2-4.6-1.8-2.9-3.6-3.1-4-1.5-4.9 2.1-1.2 5.3-1.4 6.9-.3m-9.5 9.2 8.6 7.9 8.1-8.2 8.2-8.2 9 9c8.6 8.6 8.9 9 7.2 10.8-2.6 2.9-30.5 26.9-31.9 27.4-.7.3-8.5-6.2-17.4-14.3-8.8-8.2-20.3-18.6-25.5-23.2s-9.4-8.6-9.4-9 7.8-.5 17.2-.4l17.3.4zm85.9 7.5V727h-16c-8.8 0-16-.3-16-.8 0-.4.8-1.2 1.8-1.8 2.3-1.5 26.3-22.6 28.1-24.7.7-1 1.5-1.7 1.7-1.7s.4 6.5.4 14.5m-112.6 9.4 2.8 2.9-15.4.7c-8.4.3-24.3.5-35.2.3-17.9-.3-20-.5-21-2.1-.9-1.5-.7-2.1.8-3.3 1.6-1.1 7.6-1.4 33.6-1.4h31.6zm-4.4 12.9c0 1.1-150 2.6-159.3 1.6-3.7-.4-6.7-1.1-6.7-1.5 0-.5 37.2-.9 83-.9 45.7 0 83 .4 83 .8m16.9 7.1c.8.5 1.1 1.7.7 2.8-.6 1.9-1.9 2-22.4 2.6-27.1.9-101.9.9-104.9.1-3.3-.9-2.8-3.3 1-4.9 2.6-1.2 13.8-1.4 63.7-1.4 33.3-.1 61.1.3 61.9.8m97.1 2.5c0 .2-2.2 1.8-5 3.5-2.7 1.7-5 2.6-5 2.1 0-.6-.4-1-.9-1s-.8.7-.7 1.5c.3 4-39 21.8-63.8 29-23 6.6-35.8 8.5-63.1 9.2-23.2.6-30.7.1-49.8-3.3-12.2-2.2-10.2-2.9 2.5-.9 10.6 1.7 20.4 1.3 19.1-.8-.4-.6 0-.8 1-.4.9.3 1.9.2 2.2-.3.8-1.3 3.5-.1 3.5 1.6 0 .8.4 1.4 1 1.4.5 0 .7-.7.4-1.5-.7-1.6 1.2-2 7.3-1.6 3.7.3 5.6-.6 4.7-2.1-.4-.7-.9-.6-1.4.2s-1.6.9-3.1.5l-2.4-.8 2.8-1c2-.6 3.2-.6 4 .2 1.5 1.5 2.7 1.4 2.7-.2 0-.7 1-1.8 2.3-2.6 1.7-1 1.9-1.1 1 0-1.9 1.9-1.6 3.5.7 3.5 2.2 0 2.7-1.1.8-2-.7-.3.5-.3 2.7.1 2.2.3 4.6 1 5.3 1.6.8.6 1.2.6 1.2-.3 0-.7.7-1 1.5-.6.8.3 1.5 0 1.5-.6 0-.9.3-.9 1.2 0 1.5 1.5 5.8 1.6 5.8.2 0-.6 1.9-1.1 4.3-1.1 3.8-.1 3.9-.2 1.2-.8l-3-.7 3.2-.5c2.3-.4 3.4-.1 3.8 1 .6 1.4.8 1.4 1.9-.1s1.4-1.5 2.7-.2c.9.8 3.2 1.7 5.2 2.1 3 .4 3.7.3 3.7-1.1 0-.9.5-1.6 1-1.6.6 0 1 .4 1 1 0 .5.7 1 1.6 1 .8 0 1.3-.4 1-.8-.2-.4-.1-1.4.4-2.1 1.1-1.9 3.3-.3 2.7 1.9-.3 1.1.1 2.1.7 2.3.8.3 1.1-.4.8-2.4-.2-1.7 0-3 .7-3 .6-.1 1.7-.2 2.4-.3.6-.1 1.5.5 1.9 1.4.5 1.2.7 1.2.7-.3.1-1.2.9-1.7 3-1.7 1.6 0 3.1-.6 3.5-1.5.3-.8 1.2-1.5 2.1-1.5.8 0 1.5-.7 1.5-1.5s.9-1.9 2-2.5c1.5-.8 2-.8 2 .1 0 .6.7.8 1.6.5.8-.3 1.2-.2.9.4-.4.6.1 1.8 1.1 2.7 1.6 1.6 1.6 1.6.9-.7-.6-2.1-.5-2.3.6-1.3.7.7 2 1.3 2.8 1.3 1.1 0 1-.5-.5-2.2-1.2-1.4-1.3-1.8-.3-1 .9.6 1.9.9 2.2.5.4-.3.7.3.7 1.5s.5 2.2 1.1 2.2c.5 0 .7-.5.4-1-.8-1.2 1.2-4 2.8-4 .6 0 .2.7-.9 1.5-1.9 1.4-1.9 1.4.1 1.5 2.8 0 5-1.5 3.6-2.4-.6-.4-1.1-1.2-1.1-1.8s.3-.8.7-.5c.8.9 4.4-2.3 3.8-3.4-.3-.4-.1-1 .4-1.3 1.1-.7.9 1.3-.3 3.2-.4.7-.2 2 .6 3 1.2 1.6 1.1 1.6-.6.2-1.8-1.4-1.8-1.3-1.2.8.5 1.5.3 2.2-.5 2.2-.7 0-1 .3-.7.6.9.8 4.8-1.9 4.8-3.3 0-.7.7-1.3 1.5-1.3s1.5.4 1.5.9 1.3.4 2.9-.2c1.7-.6 2.8-1.4 2.5-1.9-.3-.4.3-.5 1.2-.1 1.3.5 1.5.3.9-.7q-.75-1.35.3-.6c.7.4 2 .2 2.9-.4 1.7-1.1 1.7-1.1.1-.6-1 .3-1.8 0-1.8-.5 0-.7.9-.9 2.2-.6 1.4.4 4.6-.7 9.2-3.1 8.3-4.2 9.2-5.2 6.8-7.1-1.6-1.2-1.5-1.3.6-.8 1.7.4 2.2.1 2.2-1.4 0-1 .5-1.9 1.1-1.9s.9.7.6 1.5c-1.1 2.6 1.2 2.7 5.5.1 4.5-2.7 4.8-2.8 4.8-2.2m-121.2 12.5c.8.5 1.2 1.7 1 2.7-.2 1.4-1.5 2.1-5.3 2.6-8.6 1.1-109.4.9-111.6-.2-2.4-1.3-2.5-3.6-.1-4.9 2.1-1.3 114.1-1.5 116-.2m25.4 16.6c.7-.4.4.1-.6.9-1.1.9-2.4 1.6-2.9 1.6-.4 0-.5.5-.1 1.2.5.8.2.9-1 .5-1-.4-2.3-.7-2.9-.8-.7-.1-.1-.4 1.3-.8 1.7-.5 2.4-1.3 2.2-2.6-.3-1.6-.1-1.7 1.2-.6.8.7 2.1 1 2.8.6"/><path d="M583.2 619.2c-.1 1.7-.7 3.8-1.2 4.9q-1.05 1.8 0 2.4c.9.6 1.3 0 1.2-1.6 0-.3.3-2.2.8-4.2.4-2 .5-3.9.1-4.1-.4-.3-.8.9-.9 2.6"/></g><g fill="#2a0000" stroke-width="0"><path d="M382.2 468.2c-1.9 2.4-5.2 9.8-4.4 9.8.4 0 2-2.5 3.5-5.5 2.6-5.4 2.9-6.7.9-4.3m196.3 144.4c-1.6 1.5-2.5 2.4-2 2.1.6-.3 2.2.3 3.5 1.4 2.1 1.6 2.3 2 1 2.9s-1.3 1 0 1c1.2 0 1.2.2.2.9-1.1.7-1.1.9.2 1.4 1.2.5 1.6 0 1.7-2.1.1-1.5.1-3.1 0-3.5-.1-.5.3-.6.8-.3.5.4.5 2.1-.1 4.3-.5 2.1-1 4.3-1 5-.1.7-.5 1-1 .7s-.6-.9-.3-1.4c.2-.4-.5-1-1.8-1.2-1.9-.4-2.2 0-2.1 2.3 0 1.6.7 3.5 1.4 4.4 1.1 1.4 1.1 1.6-.1 1.3-.8-.2-1.7-.8-2.1-1.3-.4-.6-.8-.2-.8.8s-.7 2-1.5 2.3c-.8.4-1.5 1.1-1.5 1.7 0 .7.4.7 1.2-.1.7-.7 1.5-1.2 2-1.2 1.1 0-.3 3.3-2 4.7-.9.7-1.1 1.3-.5 1.3 2.1 0 2.2 4 .1 5.4-1.2.9-1.8 2.1-1.5 3 .6 1.4-.8 3-2.5 3.1-2.1 0-1.3 1.1 1 1.1 1.5 0 3-.4 3.5-1 .5-.8 1.1-.6 1.8.4.9 1.3 1 1.2.5-.2-.3-1 0-2 .6-2.4.7-.4.5-1-.6-1.6-1.5-.8-1.5-1.1-.1-2.4.8-.9 1.5-2.2 1.5-2.9s.8-2.2 1.8-3.1c1.5-1.6 1.5-1.7 0-1.2-1.8.7-2.8-.9-2.4-3.8.3-2.1 2.2-1.7 2 .3-.1.7.2 1.3.7 1.3s.9-.9.9-2.1c0-1.5.5-1.9 1.5-1.5.8.3 1.5.2 1.5-.3s-1-1.2-2.2-1.5l-2.3-.7 2.4-1c1.3-.5 2.1-1.5 1.8-2.2s.1-2.1.9-3.2c.8-1 1.4-3.4 1.4-5.2 0-2.6-.4-3.3-2-3.3-1.9 0-2.4-1-2.1-3.8.2-1.6.1-1.5-3.4 1.4m5.3 32.2c.5 9.6 1 10.8 1.1 2.7 0-3.9-.3-7.6-.7-8.2-.4-.7-.6 1.8-.4 5.5m-16.2 10.9c-.3.7.1 1 .8.7 1-.4 1.2.2.8 2.1-.3 2-.7 2.3-1.4 1.3-.6-.9-.8-.8-.6.7.2 1.3-.2 1.9-1.2 1.7s-.7.4.8 1.8c1.2 1.2 2 2.5 1.7 3-.3.6.1.7 1 .4 1.2-.5 1.3-.9.4-2s-.8-1.4.2-1.4 1.1-.2.2-.8c-1.3-.8 1.7-5.2 3.6-5.2.5 0 1.2-.4 1.5-.9.4-.5-.4-.7-1.6-.4-2.2.5-2.2.5-.4-.9s1.6-1.5-1.7-1.4c-2 .1-3.9.6-4.1 1.3m193.5 90c.4 2.3-.3 3.1-2.3 2.6-2.1-.4-2.1-.3-.5.7.9.6 1.4 1.6 1.1 2.2-.4.6-.1.8.7.6.8-.3 1.3-1.1 1.1-1.8q-.3-1.2 1.5-.6c1.4.6 1.5.4.6-.5-.6-.6-.9-1.8-.6-2.5.3-.8 0-1.4-.6-1.4s-1 .3-1 .7M725.5 759c-.3.5-.3 1 .1 1s-.3 1.1-1.6 2.5-2.1 2.8-1.8 3.1c.4.3-.1 1.4-1 2.5-1.2 1.4-1.8 1.6-2.5.6-.6-.9-.7-.8-.4.3.2.8 1.2 1.3 2.3 1.2 2.4-.5 4.3-3.2 3.6-5.1-.4-1-.1-1.2.8-.6q1.35.75.6-.3c-.4-.7-.4-1.8.1-2.5.8-1.3 1.3-3.7.8-3.7-.2 0-.7.4-1 1m-22.7 7.3c-2.1 1.6-2.8 4.1-1.7 5.8.8 1.2 1 1.2 1.9-.1 1.3-1.9 1.3-3.3 0-2.5-.6.3-.7-.1-.4-1 .4-1 1.3-1.3 2.4-1 1 .3 2.2 0 2.6-.6.5-.8.3-.9-.6-.4-.7.4-1.5.3-1.9-.4-.5-.8-1.1-.8-2.3.2"/><path d="M712.3 766.6c2.2 2.7 2.1 3.6-.3 5.2-1.8 1.1-2.2 1-3-1-.5-1.3-.9-1.7-.9-.9-.1 1.1-.4 1.1-1.6.1s-1.2-.6.2 2c.8 1.8 1.8 2.8 2.2 2.4.3-.5 1.3-1 2.1-1.2.8-.1 2.7-.5 4.2-1l2.6-.7-3.6-3.5c-2-1.9-2.9-2.6-1.9-1.4m-9.6 7.5c-1 1.1-2.3 1.7-2.9 1.3-.7-.4-.8-.3-.4.4.9 1.5 3.6 1.6 3.6.2 0-.6.5-.9 1.1-.8.6.2 1.3-.5 1.4-1.5.4-2.2-.5-2.1-2.8.4m-16.4-.4c-2.1.8-1.5 5 .7 5.6 1.1.3 1.8.2 1.5-.3-.7-1.1 5.7-4 7-3.2.5.4.1.8-1 1s-2.4.9-3 1.4c-.7.7-.1.8 2 .3 1.7-.4 3.6-.8 4.4-.8s.3-.8-1-1.8-2.9-1.7-3.6-1.4c-.6.2-1.4-.1-1.7-.8-.2-.7-.5-.3-.6.8l-.1 2-1-2c-.9-1.9-.9-1.9-.5.2.2 1.4-.2 2.3-1.5 2.6-1.6.4-1.7.2-.8-1.5 1.2-2.2 1-2.7-.8-2.1m-25.6 2c-.4.3-.2 1.2.5 2 .8 1.1.7 1.2-.6.7-1.7-.7-2.3 1.1-.6 2.1.6.4.8 1 .5 1.5s0 1.2.6 1.6c.8.4.9.3.5-.4s-.3-1.2.2-1.2c.4 0 1.8-.9 3-2 1.2-1.2 2.3-1.6 2.7-1s-.4 1.4-1.6 1.8c-1.9.7-2 1-.6 1.5 1 .4 1.7.2 1.7-.4s.4-.8.8-.5c1.6 1 1-3.3-.7-4.9-1.7-1.5-1.9-1.5-2.5.2-.7 1.7-.8 1.7-2 .1-.7-1-1.6-1.5-1.9-1.1m16.2 1c-.6 6-.9 5.5 3.1 5.7 1.5 0 2.4-.4 2.2-1.2-.1-.9.6-1.1 2.5-.7 2.4.5 2.5.5 1-.5-2.1-1.4-5.1-.5-4.1 1.1.4.7.1 1-.7.7s-1.3-1.1-1.1-1.7c.1-.6-.4-1-1-.9-.7.2-1.2-.5-1-1.5.2-.9 0-1.7-.3-1.7s-.5.3-.6.7m-42.9 2.2c1.3.9 1.2 1.3-.4 2.8-1.8 1.6-1.9 1.6-.7.1 1.2-1.6 1-1.8-2-1.4-1.9.2-3.9 0-4.6-.6-.8-.6-2.2-.7-4-.1l-2.8 1 2.4.8c1.6.5 2.6.3 3.2-.6.9-1.5.9-1.5 1.3 1.7.3 2.3 3.3 6 4.2 5.1.3-.3-.3-1.4-1.4-2.5-2.6-2.6-1.8-3.4 1.6-1.6 4.3 2.2 5.9 1.6 5.3-1.9-.1-.5.2-.6.7-.3.9.5 3.9-1.1 3.2-1.7-.3-.3-2.1-.8-4-1.1-2.5-.5-3.1-.4-2 .3m19 .2c0 1.3-2.9 1.8-5.9.9-1.9-.5-3.3-.5-3.7.1-.3.5-1 .7-1.5.4-1.2-.8-1.1 1.7.2 3.5.9 1.3 1 1.3.6-.2-.6-1.9 2.9-3.3 3.6-1.4.6 1.5 9 1.3 9.5-.3.3-.8.8-.9 1.7-.1s1.1.5.8-1.5c-.4-1.9-1.1-2.4-2.9-2.3-1.3.1-2.4.5-2.4.9m-43.5 4c-.4.5-1.1.7-1.6.4-.5-.4-.9.1-.9.9 0 2 1.9 2.1 2.6.1.4-.8 1-1.2 1.6-.9.5.3.4 1.1-.3 2-.9 1.2-.6 1.4 1.9 1.4 1.8 0 3.2-.6 3.6-1.6.9-2.3.8-2.4-1.1-2.3-1.1 0-1.3.3-.5.6.6.2 1 .9.6 1.4-.8 1.4-2.4 1.1-2.4-.5 0-1.7-2.7-2.9-3.5-1.5m241 35.1-8 8.3 8.3-8c4.5-4.4 8.2-8.1 8.2-8.2 0-.8-1.1.3-8.5 7.9"/></g><path fill="#2a2a00" d="M437 399.5c-1.5 1.8-3.4 2-2.4.2.5-.8.2-.7-.9.2-1 .8-1.5 1.6-1.2 1.9.8.8-4.7 6.2-5.7 5.6-.5-.3-.7 0-.6.8.2.7-.2 1.2-.8 1.1s-1.1.5-1.1 1.2c0 .8 2.8-1.1 6.1-4.2 3.4-3.1 6.8-6.2 7.6-7 .8-.7 1.2-1.3.8-1.3-.3 0-1.1.7-1.8 1.5m-37 39.8c-3 4.5-6.8 10.2-8.3 12.7-2.7 4.4-2.7 4.4-.2 1.5 4.2-4.9 4.6-5.5 3.9-5.5-.3 0 .7-1.5 2.2-3.4 3.4-4.1 8.8-12.6 8.3-13.1-.2-.2-2.9 3.3-5.9 7.8m484.7 6.3c-.9.9 4.4 8.5 5.4 7.8.5-.3.9-.7.9-1s-.4-.2-1 .1c-.9.6-1.4-.7-1.1-2.7 0-.4-.8-1.2-1.9-1.8s-1.8-1.5-1.5-2.1c.7-1 .2-1.2-.8-.3m16.3 25.7c0 1.3 5.3 11.7 6.2 12.3.5.3-.5-2.3-2.3-5.8-3.2-6.5-3.9-7.6-3.9-6.5m-545.2 61.2c-.8 3-1.2 5.5-.8 5.5.7 0 3.3-10.1 2.7-10.7-.2-.1-1.1 2.2-1.9 5.2m219.6 81.7c-.3 1.2-1.2 1.7-2 1.4s-1.2-.2-.9.3c.3.6-1.5 2.4-4 4.1l-4.5 3.1v17c0 11.1.3 16.8 1 16.4.6-.3 1-.1 1 .4 0 .6-.5 1.1-1.1 1.1-.8 0-.8.5.1 1.5s.9 1.5.1 1.5c-1.4 0-1.5 3.7 0 4.5 1.7 1.1 2.3-.3.9-2-1-1.2-1-1.5.3-1.5 1.1 0 1.4-.5 1-1.7-.4-1-.2-1.4.4-1s1.3-.3 1.6-1.4c.4-1.5.2-1.9-.9-1.5-.8.3-1.3.2-.9-.3.3-.5-.1-1.2-.7-1.5-.7-.3-.4-.5.7-.5 3.4.2 4.5-.1 4.5-1 0-.5-.9-.7-2-.4-2.8.7-2.5-.6.4-1.7 1.7-.6 2.3-1.4 1.9-2.8-.3-1.2.2-2.2 1.1-2.5 1.9-.7 2.2-3.7.4-3.7-.9 0-.8-.4.2-1 1.3-.9 1.3-1 0-1-1.2-.1-1.1-.3.3-1.1.9-.5 1.7-1.6 1.7-2.3 0-.8.6-1.9 1.4-2.5 1.1-.9 1.5-4.6.6-4.6-.1 0-.2-1.4-.3-3.1-.2-2.6.1-3 2.1-2.6 1.2.2 2.2-.1 2.2-.7s-.6-1.1-1.2-1.1c-.9 0-.8-.4.2-1 1.2-.8 1.2-1 .1-1-.9 0-1-.4-.3-1.3s.2-1.9-1.9-3.8c-2.7-2.5-2.9-2.5-3.5-.7m8.9 17.8c0 4.7.2 6.6.4 4.2.2-2.3.2-6.1 0-8.5-.2-2.3-.4-.4-.4 4.3m-20.9 54.5c0 4.9.1 7.1.3 4.8s.2-6.4 0-9-.3-.8-.3 4.2m-31.6 50.2c3.4.2 9 .2 12.5 0 3.4-.2.6-.3-6.3-.3s-9.7.1-6.2.3m174.5 32.5c.4 1 .3 1.8-.1 1.8-1.2 0-.9 4.9.3 5.4 1.3.5 1.4-6.9.1-8.1-.5-.4-.6 0-.3.9m3.5-.3c1 .6 1 1-.2 2.1-2.5 2-.7 3.2 1.9 1.3 2.3-1.7 3.6-4.1 1.6-2.8-.5.3-1.2.1-1.6-.5-.3-.5-1.2-1-1.8-1-.8 0-.8.3.1.9m-8.5 4.8c-1 1-3.6 1.9-5.7 2.1-2 .2-5.2 1.2-6.9 2.2-3.6 2.2-2.6 2.7 1.3.7 4.7-2.5 7.3-2.7 9.4-.9 1.8 1.6 1.9 1.6 1.3 0-.4-1.1.1-2.3 1.5-3.2 1.2-.9 1.9-1.8 1.6-2.2-.4-.3-1.5.3-2.5 1.3m-24.9 3.5c.4 1.3 0 1.8-1.4 1.8-1 0-2.1.4-2.4.9s.5.8 1.9.7c1.4 0 2.5-.4 2.5-.9 0-.4 1.5-.8 3.3-.8l3.2-.2-3-.4c-1.6-.3-3.4-1-3.8-1.6-.6-.8-.7-.6-.3.5m-12.1 3.3c-1.2.8-3 1.2-4 .9-1.5-.5-1.5-.4-.3.5 1.3.9 1.3 1.1-.2 1.1-.9 0-2-.5-2.4-1.1-.5-.8-1-.7-1.6.4-.5 1-1.5 1.4-2.5 1-1.1-.4-1.4-.3-.9.6.4.6 2.2 1.1 3.9 1.1 1.8-.1 4.9.3 7 .8 3.1.8 3.6.8 2.7-.3-.6-.7-2-1.1-3-.8-1.2.3-2 0-2-.7 0-.8 1-1 3.3-.6 2.2.4 4 .1 5.2-.9 2.2-1.6 1.3-2-1.4-.6-1 .6-2.3.6-3.2 0-1.2-.7-1.1-.9.3-.9.9 0 2-.5 2.3-1 .9-1.5-.7-1.2-3.2.5m-27.9 2.6c-.5.9.2 1.3 1.9 1 .4 0 .7.3.7.9 0 .5.3.9.8.9 1.8-.3 2.6.2 1.4 1-1 .6-.7 1 1.2 1.3 2.9.6 3.3-.3 1.1-2.6-2.4-2.3-1.7-3.2.8-.9 1.5 1.4 2.8 1.8 4.2 1.3 1.1-.4 2.5-.4 3 0 1.4 1.1 7.5 1.8 6.9.8-.3-.4-1.5-.8-2.7-.8-1.3 0-3.3-.8-4.7-1.7-1.8-1.3-2.5-1.4-2.8-.4s-.6 1-1.2.1c-.8-1.4-9.8-2.2-10.6-.9m-18.8 1c.4.8-.1.9-1.7.5-1.3-.3-1.8-.3-1.1 0 2.8 1.3.8 2.4-4.5 2.4-3.5 0-5.3.4-4.5.9 1.7 1 10.5.2 11.3-1.2.4-.5 1.9-.7 3.5-.3l2.9.7-2.5-2.1c-2.7-2.1-4.5-2.6-3.4-.9m12.9.9c-1.1 1.8.4 3 2.9 2 1.4-.5 2.8-.5 3.5.1.6.5.5.3-.1-.5-1.8-1.9-5.5-2.9-6.3-1.6"/><path fill="#aa2a00" d="M563.3 671.5c0 3.8.2 5.3.4 3.2.2-2 .2-5.2 0-7-.2-1.7-.4-.1-.4 3.8"/><path fill="#d4aa00" d="M936.3 613.5c0 3.8.2 5.3.4 3.2.2-2 .2-5.2 0-7-.2-1.7-.4-.1-.4 3.8"/><path fill="#ffd400" d="M849.5 403.8c2.2 2.4 5.4 5.3 7 6.4 2.3 1.6 2.1 1.2-1-1.8-7.3-6.9-10.3-9.2-6-4.6M437.7 600.7c-.9 3-1.9 11.8-1.4 11.3.7-.7 2.8-12.3 2.3-12.7-.2-.3-.6.4-.9 1.4m-3.4 26.8c0 3.8.2 5.3.4 3.2.2-2 .2-5.2 0-7-.2-1.7-.4-.1-.4 3.8m0 16.5c0 4.1.2 5.8.4 3.7.2-2 .2-5.4 0-7.5-.2-2-.4-.3-.4 3.8m48 .7c-6.5 8-9.7 12.7-8.2 11.9.8-.4.6-.1-.3.7-1 .8-1.5 1.7-1.1 2 .3.4-.2.9-1.1 1.3-.9.3-1.3 1-1 1.5s0 .9-.6.9-.8.4-.5 1c.3.5.1 1-.5 1s-.9.4-.6.9c.8 1.3-.4 4.2-1.5 3.5-.5-.3-.6.2-.3 1s-.4 2.4-1.5 3.5c-2.5 2.5-4.9 8.1-4.4 9.8.3.7-.1 1.3-.7 1.3-.7 0-1 .7-.7 1.5.4.8.2 1.7-.2 2-.5.3-.7 1.4-.4 2.5s.1 2-.4 2c-.6 0-.8 1.1-.5 2.5.2 1.5 0 2.5-.7 2.5-1.2 0-1.6 15.6-.3 16.3.4.3.7-.9.6-2.6-.1-4.2.7-7.2 1.6-5.8.4.7 1 .3 1.7-1.1 4.9-10.8 6.7-14.5 8.4-16.7 1.1-1.4 4.1-5.3 6.7-8.6 2.5-3.3 5.1-6.6 5.7-7.3.5-.7 3.6-4 6.8-7.4 6-6.3 6.7-7.4 4.2-6.4-2.9 1.1-1.5-.4 2.2-2.3 3.4-1.7 3.5-1.9 1.1-1.9-1.4 0-3.5-.9-4.7-2.1L489 650l-2.2 2c-2.3 2.1-4.4 2.7-3.3 1 .3-.6.2-1-.4-1-.5 0-1.2.4-1.5.9-.9 1.3 2.6 2.3 3.8 1.1 1.4-1.4 2.6-1.3 2.6.4 0 1-1.4 1.3-5 1.3-3.9-.1-4.7-.4-3.8-1.4.7-.9.7-1.3 0-1.3-.6 0-.9-.7-.5-1.6.5-1.3.8-1.3 1.5-.2.8 1 .9 1 .5-.2-.2-.8 1.1-3.6 3-6.2 4.3-6.1 3.6-6.1-1.4-.1m-5.2 90c1.3 5.1 7.8 18.7 8.6 18 .3-.3.1-2-.5-3.6-1.3-3.7-.1-4 2.5-.8 1 1.3 2.8 2.9 4 3.5 1.2.7 2.7 1.8 3.5 2.5.7.7 3.1 2.5 5.3 4.1l4 2.8-3-2.7c-11.7-10.8-19.8-18.7-18.5-18.1s1.3.5 0-.6c-.9-.7-2.6-3-3.9-5.1-1.2-2-2.4-3.7-2.6-3.7s.1 1.7.6 3.7"/><g fill="#ff0" stroke-width="0"><path d="M613.5 320.1c1.4.6-.2.7-4.8.4-4.6-.4-6.6-.2-6.2.5s-.7.8-3.4.4c-2.9-.5-4.1-.3-4.1.6 0 .7-.7 1-1.6.6-2.3-.9-8.8.4-7.6 1.6.5.5 4.7.2 10.3-.7 5.2-.8 11.4-1.5 13.9-1.5 5.2 0 8.2-1.3 5.5-2.4-2.6-.9-4.3-.6-2 .5m-55.7 9.6c-1 .2-1.8.8-1.8 1.3s-.8.7-1.7.3c-1.3-.4-1.5-.3-.8.5s2.2.8 5.3 0c3-.7 3.9-1.3 3-1.9-.7-.5-1.5-.8-1.8-.8-.3.1-1.3.3-2.2.6m79.5 3c3.2.2 8.1.2 11 0s.3-.3-5.8-.3c-6 0-8.4.1-5.2.3m-97.8 3.3c-9.5 3.3-25.5 10-33.9 14.2-8.6 4.2-23.6 12.9-24.2 14-.3.4 1.9-.6 4.8-2.3 13.1-7.8 43.7-21.3 58.7-25.9 2.9-.9 4.7-1.9 4-2.2-.8-.3-5 .7-9.4 2.2m-36.4 24c-2.4 1.7-5 3-5.6 3-.7 0-1.8.7-2.5 1.5-.7.9-1.5 1.3-1.8 1s-1.9.6-3.6 1.9-4.7 3.2-6.6 4.2c-3.9 2.1-10 6.5-19.5 13.9-3.5 2.7-7.8 6.1-9.5 7.5-5.3 4-24.3 22.9-31.1 31-31.9 37.4-52.4 82.2-62.9 137.5-1.9 9.8-3 26-3 42.5 0 57.7 16 110.8 47.2 156.7 2.7 4.1 4.6 7.8 4.2 8.5-.4.6-.3.8.3.5.6-.4 4.4 3.5 8.5 8.6 33.2 41.2 74.4 71.7 120.8 89.6 4.7 1.8 9.4 3.7 10.5 4.1 7.4 3 29.2 9.2 39.6 11.4 16.4 3.4 40.4 5.6 54.6 5.1 20.8-.7 42-3.2 53.8-6.2 3.3-.8 6.9-1.6 8-1.8 4.3-.5 21.5-5.6 31-9 17.2-6.3 22.7-8.6 30-12.7 2.2-1.3 4.7-2.4 5.5-2.6s1.8-.9 2.2-1.5c.4-.7.8-.8.8-.4 0 .5 1.3-.1 2.9-1.2 1.6-1.2 3.2-2.1 3.5-2.1.5 0 17-9.7 20.6-12 .8-.6 3-2 4.8-3.1 1.7-1.2 3.2-2.5 3.2-3s.5-.9 1.2-.9c1.6 0 11.6-7.6 15.7-11.9 1.9-2 3.1-3 2.6-2.2-.5 1-.4 1.2.4.7.6-.4 1.8-2 2.6-3.7.9-1.6 2.2-2.9 3.1-2.9.8 0 1.7-.7 2.1-1.6.3-.8 1.7-2 3-2.5s2.1-1.3 1.8-1.9c-.3-.5-.2-1 .3-1 1.3 0 12.2-10.5 12.2-11.7 0-.6.9-1.3 2.1-1.6 1.4-.4 1.8-1 1.3-1.9-.4-.7-.4-1 .1-.6.4.4 2.2-1.1 3.9-3.5 2.9-3.9 4.1-5.4 8.5-10.2 1-1.1 2.7-3.4 3.7-5 1-1.7 2.4-3.7 3.1-4.5 3.7-4.3 6.3-7.9 6.3-8.7 0-.6 1.3-2.8 2.8-4.9 3.3-4.6 4.6-7.4 4.3-9.3-.1-.7.2-1 .7-.7.9.5 2.4-1.6 2.6-3.6.1-.4.8-1.6 1.7-2.6 1.7-2 3.3-5.3 3.1-6.5-.1-.4.3-.7.9-.7s.9-.8.7-1.8c-.2-.9.2-2.2 1-2.7.7-.6 1.4-1.8 1.5-2.7.2-.9.8-2.2 1.4-2.9 1.3-1.7 10-25.5 12-32.9 7.8-29.6 10.3-49.3 10.3-79.7 0-11.2-.2-20.7-.4-21.1s-.9-5.9-1.5-12.2c-1.7-17.7-9.3-50.5-13.9-60.1-1.2-2.5-2.2-5.1-2.2-5.7 0-.7-.6-1.2-1.4-1.2s-1.8-.4-2.1-1c-.4-.6.1-.7 1.1-.3 1.2.4 1.5.2 1.2-.8-.3-.8-1.1-1.3-1.7-1.1-.7.1-1-.2-.6-.8.3-.5.1-2.6-.6-4.5-1-2.7-1.6-3.2-2.6-2.3-.7.6-1.1 1.9-.8 2.9.7 2.2-.2 4.2-1.6 3.3-.6-.3-.5-1.2.3-2.2 1.2-1.5 1.1-1.6-.4-.3-1.6 1.2-1.8 1.1-1.8-.8 0-1.1.6-2.1 1.3-2.1.8 0 .8-.3-.2-.9-.8-.5-1.2-1.8-.8-3 .3-1.2.1-2.1-.4-2.1-1 0-.5-4.2.7-6.1.5-.8.3-.9-.6-.4-1 .6-1.2.4-.7-.8.4-1-.1-2.2-1.3-3-1.1-.8-1.7-1.7-1.2-2.2.4-.5.2-.5-.4-.2-1.3.7-5.7-4-4.9-5.3.9-1.4-1.5-2.3-3-1-1.1.9-1.6.6-2.6-1.2-1.3-2.4-1.5-2.8-1.8-6.3-.1-1.5-.3-1.7-1-.7-.7 1.1-1 1-1.5-.3-.7-1.9.1-3.8 1.4-3 .4.3.7-.6.6-1.8-.1-1.8-.6-2.3-1.9-1.9-1.2.3-1.5.8-.7 1.7 1.4 1.7 0 2.7-1.8 1.3-.8-.7.4 2.1 2.6 6.2 2.7 5 4.7 7.5 5.9 7.5s1.7.7 1.5 1.9c-.2 1.3.1 1.6 1 1 1-.6 1-.5 0 .9-1.6 1.9-.8 3.7 1.8 3.7 1.8 0 3 1.7 3.7 5.4.3 1.7.1 1.7-1.7-.4-2.2-2.5-2.6-2-1 1.1.6 1 1.7 1.9 2.6 1.9 1.1 0 1.3.7.8 2.6-.5 1.8-.3 2.5.4 2 .6-.3 1.4-.1 1.8.5.5.8.3.9-.6.4-.9-.6-1-.2-.5 1.6 1.3 4 3.5 7.9 4.6 7.9.6 0 .7.5.3 1.2s-.3.8.5.4c.6-.4.8-1.3.4-1.9-.4-.8-.1-.8.9.1 1.9 1.5 3.1 5.2 1.6 4.9-.6-.1-1.3.4-1.6 1.2-.3.9 0 1.1.8.6.9-.5 1.1-.4.6.4-.4.6-.2 1.8.4 2.6.8 1 .9 1.5.2 1.5-.8 0-.8.9-.1 3 .7 1.8 1.8 3 2.9 3 2 0 3.5 5.8 1.9 7.4-1.5 1.6-1 2.4 1.1 1.9 1.6-.4 1.9-.2 1.3 1.2-.5 1.4-.3 1.6.8 1 1.1-.7 1.2-.6.2.7-.7.8-1 1.8-.6 2.1.3.4.2.7-.3.7-.6 0-.8 1.6-.6 3.5s.8 3.2 1.3 2.9.6.1.3.9.2 4.2 1.1 7.7c1.7 6.7 3 14.7 4.5 28.5 1 8.7 1.3 46.9.5 55-1.7 17.4-1.7 17.8-6 36-.9 3.8-2 8.6-2.4 10.5-.5 1.9-2.1 6.9-3.6 11s-3.3 9.3-4 11.5-2.2 6.1-3.4 8.8c-1.1 2.6-2.1 5.1-2.3 5.5-1.1 3.5-14.6 28-19 34.3-8.6 12.5-12.2 17.6-14.5 20.4-1.3 1.6-3.4 4.3-4.6 5.8s-5 5.7-8.4 9.4c-3.5 3.6-6.3 7-6.3 7.4 0 .5-.5.9-1.1.9s-3.9 2.9-7.2 6.5-6.6 6.5-7.3 6.5-1.9.8-2.6 1.8-2.9 2.9-4.8 4.2c-1.9 1.4-3.9 2.8-4.5 3.2-5.8 4.6-9.7 7.4-16.3 11.4-4.2 2.6-8.4 5.3-9.3 6.1-6.3 5.3-25 14.9-44.5 22.8-35.2 14.2-71.2 21-108.4 20.4-21.7-.3-28.7-1.2-58-7.4-20.6-4.4-45.2-14.5-73.5-30.3-40-22.3-79.7-61.3-103.8-101.7-21-35.3-31.9-70.7-35.7-116.4-2-23.1 1.2-57.5 7.6-81.6 3.5-13.3 3.6-13.5 4.5-12.9.5.3.6-.2.3-1-.8-2.2 3.5-14.8 4.8-14 .7.5.8.2.3-.5-.9-1.6 2.3-10.3 3.6-9.6.5.4.6 0 .3-.8-.7-1.8 8.1-21.3 9.5-21 .6.2.7-.5.4-1.4-.5-1.2-.3-1.4.7-.8q1.35.75.6-.3c-.9-1.5 3.4-9.3 4.7-8.5.6.3.7.1.3-.5-.9-1.5 1.2-5.4 2.4-4.7.6.3.7 0 .5-.7-.7-1.8 12.8-21.4 14.4-21 .7.1 1-.2.6-.8-.9-1.4 5.4-9.2 6.7-8.4.7.5.8.2.3-.5-.9-1.5 3.3-6.3 4.8-5.4.6.3.7.1.3-.5-.9-1.4 13.5-17.4 15.1-16.8.7.3 1.2 0 1-.7-.1-.7.3-1.1.9-1 .7.1 2-.8 3-2 1.6-1.8 1.6-2 .2-.8-1.1.8-1.8.9-1.8.3s1.1-1.9 2.4-2.9 6.1-5 10.7-8.8c12.3-10.3 27.4-21 35.7-25.4 1.2-.6 2.9-2.6 3.7-4.4s2.2-4.2 3.1-5.5c2.2-3 .8-2.8-4.5.8m294.5 2.8c-.4.7.9 1.9 3.1 3.1 5 2.6 12.1 7.3 21.6 14.4 4.3 3.3 8 5.7 8.3 5.5.5-.6-20.4-16.3-24.7-18.5-1.9-1-3.7-2.3-4.1-2.8-.5-.6-.8-.6-.8-.1 0 .6-.6.2-1.3-.9-.9-1.2-1.6-1.4-2.1-.7m43.4 32.6c0 .2 2.6 2.5 5.8 5.1l5.7 4.8-5-5.1c-4.4-4.5-6.5-6.1-6.5-4.8m30.4 46.9c.3 1 .6 2.7.6 3.7 0 1.3.7 1.8 2 1.7 1.1-.1 1.8-.6 1.6-1.2-.2-.5-.9-.9-1.5-.7-.7.1-1-.1-.8-.5.3-.5-.2-1.7-1-2.8-1.4-1.8-1.5-1.8-.9-.2"/><path d="M541.5 464.9c-13.5 6.9-29.5 18.5-42.9 31.1-10.5 9.9-20.2 20-22.6 23.6-.8 1.2-4 5.5-7.1 9.6-9.7 12.7-21.3 34.7-20.3 38.2.4 1.5.3 1.7-.4.8-1-1.5-.9-1.9-6.8 15-3.5 10.2-5.5 19.6-3.5 16.8.9-1.1 1-.4.5 3-1.2 7.6-2.3 10.1-1.9 4 .4-4.8.2-4.3-1.6 3.5-1.7 7.8-1.9 11.7-1.5 30 .3 17.6.8 23.2 3.1 34.5 1.4 7.4 3 13.9 3.5 14.4.5.4 1.6-1.9 2.5-5.3 1-3.3 2.1-5.9 2.5-5.6s.8-.1.7-.8c-.1-3.2.4-4.8 1.3-4.2.6.4.7-.1.3-1.1-.5-1.3-.3-1.5.7-.9.8.5 1.1.4.7-.3-1-1.5.3-4.3 1.6-3.5.6.3.7.1.3-.5-.9-1.5 1.8-5.5 2.9-4.4.5.4.5.1.1-.5-.4-.8.4-2.4 2.1-4 1.5-1.4 2.2-2.3 1.4-1.8-.9.5-.7-.2.5-1.7 1-1.4 2.2-2.4 2.7-2.1.4.2.6.1.5-.4-.4-1.5 2.3-5.4 3.4-4.7.6.4.8.3.5-.3-.8-1.2 10.3-13.3 12.4-13.6 2.2-.4 4-1.8 3.4-2.7-.7-1.2 2.2-3.3 3.6-2.4.7.4.9.3.5-.4-.8-1.3 2.8-3.5 3.9-2.4.5.4.5.2.2-.5-.4-.6.9-2.4 3.2-4.2 4.1-3.3 5.6-3.9 4.6-1.9-.4.7 0 .5.8-.4.8-1 1.8-1.4 2.2-1 .5.4.5.2.2-.4-.4-.7 0-1.7.8-2.4 1.1-.9 1.9-.8 3.6.4 2.2 1.5 2.2 1.6-5 8.9-3.9 4-6.8 7.7-6.4 8.2.5.4.3.5-.3.2s-2.6 1.1-4.6 3.1c-4.9 5.3-15.2 19.1-14.6 19.7.3.3 2.8-2.5 5.6-6.3 6-8.1 10.1-11.9 5-4.7-1.9 2.8-3.3 5.7-3.1 6.5.4 1.2.3 1.2-.5.2-.7-1.1-1-1.1-1.5.2-.4.9-.1 1.6.5 1.6.7 0 .7.4 0 1.3-.9 1-.1 1.3 3.8 1.4 3.6 0 5-.3 5-1.3 0-1.7-1.2-1.8-2.6-.4-1.2 1.2-4.7.2-3.8-1.1.3-.5 1-.9 1.5-.9.6 0 .7.4.4 1-1.1 1.7 1 1.1 3.3-1l2.2-2 2.1 2.1c1.2 1.2 3.3 2.1 4.7 2.1 2.4 0 2.3.2-1.1 1.9-3.7 1.9-5.1 3.4-2.2 2.3 2.5-1 1.8.1-4.2 6.4-3.2 3.4-6.3 6.7-6.8 7.4-.6.7-3.2 4-5.7 7.3-2.6 3.3-5.6 7.2-6.7 8.6-1.7 2.2-3.5 5.9-8.4 16.7-.7 1.4-1.3 1.8-1.7 1.1-.9-1.4-1.7 1.6-1.6 5.8.1 1.7-.2 2.9-.6 2.6-1.5-.9-.8-14.8 1.3-23.5 1.4-5.9 4.2-13.1 8.3-21.3 3.5-6.9 6-12.5 5.6-12.5-.3 0-2.1 3.1-4 7-1.9 3.8-3.8 7-4.4 7-.5 0-.6.3-.3.7.4.3.1 1.6-.6 2.7-3.9 6.2-7.7 22.4-7.7 32.9 0 9 3 21.5 7.7 31.4 1.9 4.1 3.6 7.3 3.8 7.1s-.5-3-1.6-6.2c-1-3.3-2.2-8.9-2.7-12.5-.8-7.4-.5-17.4.6-16.7.4.2.7-1.1.8-2.9.1-4.3 2.4-11.6 3.5-10.9.5.3.6-.3.2-1.2-.5-1.3-.3-1.5.7-.9.8.5 1.1.4.6-.3-.9-1.4 1.4-6.3 2.7-5.5.6.3.7.1.3-.5-.4-.7.4-2.3 1.8-3.7 1.5-1.4 2.6-2.8 2.6-3 0-.7 2.8-4 8-9.3 2.5-2.6 4.4-5 4.2-5.4-.1-.5.2-.7.6-.6.4.2 3.2-2.1 6.1-5s5.7-4.9 6.3-4.6c.6.4.8.2.5-.3-.7-1.1 2-2.8 3.6-2.4.5.1.6-.3.2-.8-.7-1.2 2.9-3.3 4-2.3.5.4.5.2.2-.4-.8-1.4 8.9-8.8 10.4-7.8.7.4.9.3.5-.4-.8-1.3 2.8-3.5 3.9-2.4.5.4.5.2.2-.4-.8-1.5 34.9-27.8 36.4-26.8q1.05.6.6-.3c-.9-1.4 1.9-3.7 3.4-2.7q1.05.6.6-.3c-.4-.6 1.2-2.6 3.6-4.6 2.3-1.9 5.4-4.5 6.9-5.8s3.9-3.4 5.5-4.7c1.5-1.2 4.2-3.3 5.8-4.7 1.7-1.4 3.3-2.5 3.8-2.5.4 0 .7-.7.7-1.5s.5-1.5 1.1-1.5 3.8-2.3 7-5.1c3.2-2.7 6.2-5 6.6-5 .4.1.8-.2.8-.7 0-1.6 3.1-5 4.9-5.3 3.1-.6 4.2-3.4 2.2-5.5-1.4-1.3-2-1.4-2.6-.4s-.8 1-1.2 0c-.2-.8-1.2-1.4-2.2-1.6-1.7-.2-1.7-.1-.1 1.6 1.5 1.7 1.4 1.9-1.3 3.3-2.7 1.3-2.9 1.3-2.5-.4.5-1.8-.5-2.4-3.6-2-.8.2-1-.2-.5-1.1.6-1 .3-.9-1 .1-1.3 1.1-1.4 1.6-.4 2.2 1 .7.9.9-.4.9s-1.7-.6-1.5-2.2c.2-1.2.9-2.4 1.5-2.6.7-.2 1.2-1.1 1.2-2 0-1.1-.8-.6-2.2 1.5-1.3 1.8-3.1 3.4-4.1 3.7-.9.2-1.5.1-1.2-.4.6-1-2.6-2.3-3.4-1.4-.3.4 0 .9.7 1.1.6.3 1.2.9 1.2 1.5s-.9.3-2-.7-1.6-2.1-1.2-2.4c.5-.3 1.3-1.7 1.7-3 .5-1.7.4-2.2-.6-1.8-.8.2-1.3 1-1.1 1.6.1.7-.2 1-.8.6-1.1-.7-.6-1.9 1.8-4.8 2-2.3.7-2.2-2.9.4-1.6 1.1-2.7 2.4-2.4 2.9.8 1.3-.5 3.8-2.3 4.5-1.3.5-1.2.1.4-1.6 1.7-2 1.7-2.2.1-1.6-1.5.6-43.4 30.5-52.9 37.9-6.7 5.1-23.2 16-24.7 16.3-.9.2-2.1.4-2.7.4-.6.1-7.1 4.6-14.4 10.1-7.2 5.5-13.7 9.7-14.2 9.4-.6-.4-.8-.2-.5.3.9 1.4-2.9 4.7-4.3 3.8-.6-.3-.9-.3-.8.2.4 1.2-19.3 22.3-20.8 22.3-2.1 0-2.7-3.9-2.6-17.5.1-15.1 1.1-27.7 2.2-27 .4.2.5-.6.3-1.9-.7-3.5 2.7-17.7 4-16.9.5.3.7.1.4-.4-1-1.6.4-7.4 1.6-6.6.5.3.7.1.4-.4-.9-1.4.3-7.4 1.3-6.8.5.3.6-.5.2-1.7-.3-1.3-.1-1.9.5-1.5s1.1.1 1-.6c-.1-3.4.4-4.8 1.5-4.1.7.4.8.3.4-.5-1-1.6.3-5.3 1.6-4.5.7.4.8.2.4-.4-.8-1.3 3.4-11.3 4.6-10.6.4.3.5-.3.1-1.2-.4-1.2-.3-1.5.5-1s1 .1.5-1c-.5-1.3-.3-1.5.7-.9q1.35.75.6-.3c-1-1.6 3.2-9.4 4.6-8.6.7.4.8.3.4-.4-.8-1.4 1.2-5.5 2.3-4.7.5.2.8-.3.7-1.3 0-.9.5-1.6 1.2-1.4.8.1 1.1-.2.7-.8-.9-1.4 7.4-13.2 8.7-12.4.6.4.8.3.5-.3-.9-1.4 2.2-5.5 3.5-4.7.7.4.8.2.4-.4-.8-1.3 5.2-8.4 6.4-7.7.5.3 1.2 0 1.6-.6.4-.8.3-.9-.4-.5-5.6 3.5 11.4-14.1 23.3-24.1 3.3-2.7 8.7-7 12-9.4s7-5.3 8.3-6.4c1.2-1.1 2.6-2 3-2 2 0 8-4.5 8.5-6.4.3-1.1.4-2 .4-2-.1.1-5.2 2.7-11.2 5.8M434.7 630.7c-.2 2.1-.4.6-.4-3.2 0-3.9.2-5.5.4-3.8.2 1.8.2 5 0 7m0 17c-.2 2.1-.4.4-.4-3.7s.2-5.8.4-3.8c.2 2.1.2 5.5 0 7.5"/><path d="M524.9 539.7c-.1 11.5-.3 25.9-.4 32-.1 6.2 0 11.3.2 11.3.3 0 4.6-3.3 9.6-7.3 5.1-4.1 10.6-8.2 12.2-9.2 3.4-2.1 14.5-13.5 14.5-14.9 0-1.2-8.4-9.2-22.3-21.5-5.9-5.2-10.7-9.8-10.7-10.2 0-.5-.7-.9-1.5-.9-1.3 0-1.5 3-1.6 20.7m234.1 6.7c0 9.5.3 13.5 1.1 13.1.6-.4.8-1.4.5-2.2-.5-1.1-.2-1.4 1.1-.9 1.6.5 1.6.5.2-.7-1.3-1-1.7-3.4-1.8-11.7-.1-5.7-.4-10.6-.7-10.9-.2-.2-.4 5.7-.4 13.3m-158-4.8c-9.7 8-10.1 8.4-9.4 9.6.5.7 1 .4 1.5-1 .4-1.1 1.7-2.6 2.9-3.2 2.5-1.3 12.4-10 11.3-9.9-.4 0-3.3 2-6.3 4.5m227 6c-2.5 1.9-5 3.9-5.7 4.4-.6.5-4 2.9-7.4 5.2-10.7 7.3-31.9 27.7-44.2 42.4-3.7 4.5-7.7 8.4-8.8 8.7-1.5.4-4.1-1.4-10.3-6.9l-8.3-7.4h-7.7c-4.3 0-7.5.4-7.2.9.3.4 1.6.7 2.8.6 1.3-.1 1.5 0 .6.2-2.2.5-2.4 2.9-.4 3.6 1.1.4 1.3.1.9-1.1-.5-1.4-.2-1.3 1.4.3 1.4 1.4 1.8 2.4 1.1 3.2-.7.9-.7 1.3.1 1.3.6 0 1.1.7 1.1 1.5 0 .9 1.4 2.4 3 3.3 1.7.9 3.3 2.5 3.6 3.4s1.8 2.8 3.5 4.2c1.6 1.4 2.9 2.8 2.9 3.1s1.9 2.7 4.2 5.1c2.4 2.5 5.1 5.6 6.1 6.8 2.6 3.2 6 2.3 9.3-2.5 1.4-2.1 3.1-3.6 3.7-3.2.5.3.7.1.4-.4-.4-.6.2-1.8 1.3-2.8s2-2.4 2-3.2.4-1.2.9-.9c.5.4 2-1.1 3.2-3.1 1.3-2.1 3.6-5.1 5.1-6.6 1.5-1.6 2.8-3.3 2.8-3.8 0-1.3 3.3-4.9 4.5-4.9.5 0 2.5-2.5 4.4-5.5 1.8-3 3.8-5.5 4.3-5.5s.7-.4.4-.9.5-1.6 1.9-2.5 2.5-2.2 2.5-2.9 1-2.4 2.3-3.7c1.2-1.4 2.2-2.7 2.2-3 0-.4.8-1.4 1.8-2.4.9-1 1.7-2.2 1.7-2.7s.6-.9 1.4-.9c.7 0 2.2-1.7 3.2-3.8.9-2 1.6-3.7 1.5-3.7-.2 0 1.3-1.7 3.3-3.8s3.6-4.5 3.6-5.2c0-.8 1.3-2.4 3-3.6 2.8-2.1 4.7-5 3.2-4.8-.4 0-2.7 1.6-5.2 3.5m-59.4 1c-1 2.5-.7 12.6.3 12 .8-.5 1.3-13.6.6-13.6-.2 0-.6.7-.9 1.6m-6.3 24.1c2.6.2 6.7.2 9 0s.2-.3-4.8-.3c-4.9 0-6.8.1-4.2.3m-137 7.8c-1.9 1.9-3.8 3.5-4.1 3.5-1.5.1-5 3.8-5.4 5.6-.2 1.2-1.3 2-3.2 2.2-1.7.2-4.8 1.8-7 3.6-2.3 1.8-5.8 4.3-7.8 5.5-2.1 1.3-3.8 2.4-3.8 2.7 0 .8 3.5 4.4 4.3 4.4s9 7 31.8 27.2c5.4 4.8 11.5 10 13.6 11.5 4.5 3.3 8.3 6.6 17.3 15 3.7 3.4 8.2 7.5 10.1 9s4.6 3.8 5.9 5c1.3 1.3 3.4 2.3 4.5 2.3 1.2 0 5.1.3 8.6.7l6.4.6-4-4c-4.6-4.6-8.5-9.7-8.5-11.3 0-.6-.8-1-1.7-.8-1.3.2-1.9-.5-2.1-2.4-.3-2.4.1-2.8 3.5-3.7 2.1-.6 5.6-1 7.8-.9 2.2 0 7.9 0 12.6-.1 8.6-.1 8.6-.1 8.2-2.6-.3-1.3-1.5-3-2.7-3.8-2.2-1.5-8.4-7.1-15.2-13.9-2.7-2.7-4.7-3.9-5.7-3.5s-1.4.2-1.1-.6c.6-1.8-6.1-8.1-7.7-7.2-.8.5-1 .4-.5-.4 1-1.5-.6-3.4-6.9-8.4-5.1-4.1-17.9-15.6-36-32.7-2.7-2.6-5.6-4.5-6.4-4.2s-1.1 0-.7-.7c1.4-2.2-.7-1-4.1 2.4m6.7 3.4c0 .5-1.1 1.2-2.5 1.5-1.6.4-2.5 1.3-2.5 2.6 0 1-.5 2.2-1.1 2.6-.9.5-1-.1-.5-2.1.6-2.2.4-2.6-.8-2.2-.9.4-1.5.1-1.3-.6.1-.7 2-1.5 4.2-1.8s4.1-.7 4.3-.7c.1-.1.2.2.2.7m188.5 33.3c-1.1 1.1-4.9 3.9-8.5 6.2-3.6 2.4-8.4 5.8-10.7 7.7-2.2 1.9-6.9 5.6-10.4 8.4-9.2 7.3-13.8 11.5-29 26.3-16.1 15.8-17.9 16.7-23.6 11.5-4.5-4.2-10.7-7.2-14.6-7.3-1.6 0-2.6-.4-2.2-1 .5-.9-16.4-.4-17.3.5-.5.4 5.1 7.5 5.9 7.5.3 0 7.9 7.1 16.9 15.7 8.9 8.7 16.7 15.9 17.4 16.1.6.1 4.2-2.7 8-6.3s7.1-6.5 7.4-6.5 2.4-1.9 4.7-4.3c2.3-2.3 5.9-5.8 8.1-7.9 2.1-2 5-5.1 6.4-6.9s5.2-6.1 8.5-9.5c3.3-3.5 7.8-8.6 10-11.5s4.6-5.8 5.3-6.5c.7-.8 1-1.4.7-1.4-.4 0 1.4-2.3 3.9-5.1s4.6-5.7 4.6-6.4c0-.6.9-2 2-3s2-2.3 2-2.8c0-.6.7-1.8 1.6-2.8.8-.9 1.6-2.3 1.8-3.1.1-.8 1.1-3 2.3-5.1 2.5-4.1 1.8-5.4-1.2-2.5"/><path d="M848.1 633.5c-.3 17.4-7.1 42.1-16.4 59.5-6.4 11.8-16.6 27.8-20.6 32.1-1.1 1.2-2.1 2.7-2.1 3.3 0 .5-.2.7-.5.4s-2.7 1.5-5.4 4.1c-18 17.3-31.5 26.3-61.6 41.1-23.2 11.4-49.5 19.9-73.7 23.7-14.3 2.3-62.6 2.5-75.3.4-10.4-1.7-28.8-6.5-37.2-9.7-3.7-1.3-7.3-2.2-8.1-1.9-.7.2-1.1.1-.8-.3.7-1.2-12.3-7.4-13.6-6.6-.6.4-.8.3-.5-.3.4-.6 0-1.4-.9-1.7-.8-.3-1.2-.2-.9.4.3.5-1.1.2-3.2-.6-4.4-1.8-5.9-3-2.5-2 1.2.4 2.2.5 2.2.2 0-.9-6.4-4-7.7-3.8-.6.1-1.5-.3-1.9-.9-.4-.8-.3-.9.4-.5s1.2.6 1.2.4c0-.8-13.1-10-14.4-10.2-1.9-.3-8.6-4.9-8.6-6 0-.5 1-.1 2.3 1 1.2 1-1.4-1.9-5.8-6.4s-8.2-8.2-8.4-8.2c-.3 0 2.4 2.9 5.9 6.5s6.1 6.5 5.7 6.5c-1.4 0-6.2-3.4-8-5.7-2.6-3.2-3.8-2.8-2.5.8 2.1 6.1-.2 3.9-3.8-3.6-2.9-5.9-3.5-8.1-2.7-9.3.7-1.3.5-2.7-1.1-5.7-2.7-5.3-3.2-2.7-1.1 5.6 1.5 5.8 8.2 20.6 10.7 23.6.5.7.6 1.8.2 2.4q-.6 1.05.3.6c.6-.4 1.8.2 2.8 1.3s2.1 1.7 2.6 1.5c.4-.3 1.1 0 1.5.6.4.8.3.9-.4.5-2.8-1.7-.8 1.8 3.8 6.5 2.7 2.9 4.7 5.6 4.4 6-.2.4.1 1.1.7 1.5.8.4.9.3.5-.4-1.3-2.1.4-1.3 6 2.9 3 2.2 5.2 4.4 4.9 4.8-.2.5.3.8 1.3.7.9 0 1.6.4 1.5 1-.1.7.6 1 1.6.7 1-.2 2.5.2 3.3 1.1 2.8 2.8 24.1 12.2 36.8 16.3 6.9 2.3 19.1 5.3 27.1 6.8 14 2.6 15.6 2.7 41 2.2 14.5-.2 27.5-.7 28.9-1s6.3-1.1 11-1.7c6.7-.8 15.5-2.4 20-3.5.3-.1 3.1-.7 6.3-1.4 3.1-.7 5.5-1.6 5.2-2-.2-.4 2-1.3 5-2s5.7-1.6 6-2.1 2.7-1.6 5.3-2.4c9-2.9 15.2-5.3 14.7-5.7-.2-.3.8-.6 2.3-.7s2.9-.7 3-1.2c.2-.6.8-1 1.4-1 1.6 0 12-5.2 13.6-6.7.7-.7 2.1-1.3 3.1-1.3.9 0 2.6-.8 3.7-1.8 1-.9 4.4-3 7.4-4.6s7.1-4.2 9.1-5.8c2-1.5 4-2.8 4.3-2.8.4 0 1.9-1.1 3.4-2.5s3.1-2.5 3.5-2.5c.9 0 5.3-4 17.5-16.1 11.2-11 20.8-23.2 25.6-32.7 1.4-2.8 3.1-5.6 3.9-6.3 1.5-1.5 10.5-23.2 11.9-28.9 3.9-14.8 5-21.8 5.5-35 .3-8 .3-15.4 0-16.5-.2-1.1-.5 1.1-.6 5"/><path d="M542 643.2c-3 1.7-7.5 4.6-10 6.4-8.7 6.3-8 3.7-8 29.9 0 28-.7 32.1-6 36.9-4.6 4.1-13.2 8.9-17.5 9.6-1.6.3 12 .3 30.4.2 18.4-.2 34.3-.7 35.5-1.2 2-.8 2-.8-.6-1.9-3.6-1.4-11.5-8.7-13.6-12.5-1.8-3.3-2.2-13-2.2-51.9 0-14.3-.3-18.7-1.2-18.7-.7 0-3.8 1.4-6.8 3.2m114 58c.1.7 1.9 2.9 4.1 4.8s8 7.2 12.7 11.8c4.8 4.6 12.5 11.9 17.2 16.2l8.5 7.7 4-3.1c2.2-1.7 6.1-5.2 8.7-7.7 2.6-2.6 5.4-4.9 6.3-5.3.8-.3 2-1.7 2.5-3.1s1.6-2.5 2.3-2.5c1.8 0 5.7-4.2 5.7-6.1 0-1.1-9.2-8.4-12.2-9.7-.4-.2-3.4 2-6.5 4.8-3.2 2.8-7 5.8-8.5 6.6-2.5 1.3-3 1.2-5-.5-2.2-1.9-7.5-6.1-13.9-11-2.3-1.8-5-2.6-10.7-3.2-11.4-1.2-15.2-1.1-15.2.3M361.7 705c.7 3.2 9.8 26 10.4 26 .3 0-1.8-6-4.7-13.3-5.5-13.4-6.3-15.4-5.7-12.7m408.3 2.5c-1.3 1.1-3.8 3.5-5.4 5.2-1.6 1.8-3.4 3.3-3.8 3.3-1.2 0-8.6 6-9.1 7.4-.3.8 2.6 1.1 10.2.9 5.8 0 10.9-.2 11.2-.2.9-.1 1-13.2.2-16.1l-.8-2.6zM649.5 722c-4.7.6-4.5.7 2.8.8 5 .1 7.6-.2 7.2-.8-.7-1.1-2.2-1.1-10 0m-100.7 5.7c2.8.2 7.6.2 10.5 0 2.8-.2.5-.3-5.3-.3s-8.1.1-5.2.3m2.5 16.3c-1.3.5-2.3 1.2-2.3 1.6 0 .8 66-.3 66.8-1.1.3-.3-4.3-.5-10.2-.5s-20.1-.2-31.4-.5c-12-.3-21.6-.1-22.9.5m91.2 0c-2.3.4 3.5.8 13.9.9 9.9 0 17.7-.2 17.3-.5-.9-.9-26.5-1.2-31.2-.4m-20.2.7c3.2.2 8.1.2 11 0s.3-.3-5.8-.3c-6 0-8.4.1-5.2.3m-16.5 3c3.4.2 8.8.2 12 0 3.1-.2.3-.3-6.3-.3s-9.2.1-5.7.3m-66.4 11.1c.3.6 0 1.3-.6 1.5-1.9.8 102.1.8 107.6.1 2.5-.4 4.6-1.1 4.6-1.6 0-.6-5.8-.7-14.7-.4-17.2.7-17 .7-62.7-.1-23.6-.3-34.6-.2-34.2.5M421.7 807c2.6 3.4 19.3 20.3 19.7 19.9.3-.2-4.3-5.2-10.2-10.9-5.8-5.8-10.1-9.8-9.5-9m427.7 14.2c-8.9 9.2-7.3 8.6 2.5-.9 3.6-3.4 6.3-6.5 6-6.7-.3-.3-4.1 3.1-8.5 7.6m-45.9 36.4c-2.7 1.8-4.6 3.4-4.2 3.4.9 0 5-2.5 8.6-5.2 4.2-3.2.8-1.8-4.4 1.8m-69.2 32.7c-3.7 1.4-5.3 2.7-2.6 2.2 1-.2 1.9-.4 2.1-.5.1-.2.7-.4 1.2-.5.6-.1 1.3-.4 1.8-.5.4-.1 1-.2 1.5-.1.4 0 .7-.4.7-.9 0-1.2-.6-1.2-4.7.3m-115 15.3c.3.4 3.4.8 6.8.9 3.8.2 5.6-.1 4.8-.6-1.6-1-12.6-1.2-11.6-.3m34.5.6c.8.8 2.3.8 5.4.1l4.3-1.1-5.4-.1c-4.2-.1-5.2.2-4.3 1.1"/></g><g fill="#ffff2a" stroke-width="0"><path d="M619.6 319c-5.4.5-10.3 1.1-10.9 1.3s11 .1 25.8-.1c17.6-.3 29.9 0 35.9.8 5 .6 10.7 1.4 12.6 1.6 1.9.3 5.5.9 8 1.4 8.7 1.7 11 1.9 11 1.1 0-1.1-9.3-2.8-25.1-4.6-15.3-1.8-44.9-2.6-57.3-1.5m.9 6c-6.6.5-14.9 1.4-18.5 2.1-3.6.6-7.8 1.3-9.4 1.5-13.6 1.8-49.5 11.8-60.1 16.8-2.7 1.3-6.7 2.9-8.7 3.5-4.4 1.5-5.9 3.1-2.7 3.1 2.8 0 1.9 1.1-1.3 1.5-1.2.1-3.2.6-4.3 1-1.6.5-1.7.5-.5-.4 2.2-1.6.5-1.3-3.4.6-1.9.9-3.3 2-3.1 2.3.3.4-.3 1.8-1.3 3.1-2.8 3.6-5.2 8.9-3.9 8.6.5-.1 1.9-1 2.9-2 1.1-1 2.6-1.6 3.4-1.3s1.3.2 1-.2c-.7-1.2 14.2-8.4 15.6-7.6q1.05.75.3-.6c-.6-1-.4-1.2.9-.7.9.4 1.5.3 1.2-.1-.2-.4 1.5-1.7 4-2.8 2.6-1.2 4.4-1.6 4.4-1 0 .7.3.6.8-.1 1-1.6 9.2-4.5 11-3.8.7.2 1 0 .7-.5-.7-1.2 4-2.4 5.6-1.4.8.4.9.3.5-.4-.8-1.4 3.7-2.7 5.5-1.6.7.4 1 .3.6-.3-.8-1.3 13.5-5.7 19-5.7 2.2-.1 3.9-.5 3.5-1-.3-.5.9-.6 2.9-.3 2.4.5 3 .4 1.9-.3-.8-.5-1-1-.5-1 .6 0 3.7-.5 7-1 34.9-6.1 71.5-5.2 105.3 2.6 23 5.3 52 15.3 50.7 17.4-.3.6 0 .7.7.5 1.5-.6 15.3 5.5 23.6 10.4 2.9 1.7 5.9 2.8 6.5 2.5.7-.4.9-.4.5.1-.6.7 12.2 9.7 13.6 9.6 1-.1 6.1 5.1 5.9 6-.2.4.3.6 1.1.3 2-.8 20.1 14.1 19.1 15.7-.3.4.2.6 1.1.5s3.9 2.1 6.6 5.1c2.8 2.9 5.6 5 6.2 4.6.6-.3.8-.2.4.2-.5.5 1.9 3.7 5.3 7.2 3.9 4 5.8 6.7 5.3 7.5s0 .7 1.1-.2c1-.8 1.6-1 1.2-.4-.7 1.2 5.2 7.1 6.6 6.6.5-.1.6.2.2.8-.3.6 1 2.9 3 5.2 1.9 2.3 3.3 4.8 3.1 5.5-.3.7-.2 1.2.2 1.2 1.9-.3 3.3.2 2.7 1-.3.5 0 1.3.6 1.6.5.4.8 1.3.5 2.1s0 1.3.7 1.1c.7-.1 1.1.6 1 1.6 0 1 .2 1.6.5 1.3s1.2 0 2 .7c1.3 1 1.4.9.7-.3-1.4-2.2-1.5-4-.3-4 .6 0 .8.7.5 1.5-.4.8-.2 1.7.4 2.1.6.3.8 1.2.5 2s0 1.3.6 1.1c.6-.1 1.1.7 1.2 1.9.2 1.1 1 3.1 1.9 4.4 2.2 3.2 2.2 1.7 0-1.8-1.5-2.2-1.5-2.5-.2-1.5 1.9 1.5 3.3.5 1.9-1.2-.8-.9-.5-1.4.7-1.7 1.3-.4 1.8.1 1.9 1.9.1 1.2-.2 2.1-.6 1.8-1.4-.9-2.2 1.4-1.1 3.2.8 1.4 1.1 1.5 1.1.3.1-.8.5-.4 1.1.9.6 1.7.6 2.8-.3 3.9s-.9 1.4-.1.9c.7-.5 1.7.1 2.3 1.3.9 1.7 1.4 1.9 2.5 1 1.5-1.3 3.9-.4 3 1-.7 1.1 2.9 5.4 6.2 7.6l2.4 1.5-2.6-5c-1.4-2.8-3.1-5.1-3.7-5.1s-.9-.3-.5-.6c.8-.9-2.1-6.4-3.4-6.4-.6 0-.7-.4-.4-1 .3-.5-.7-2.2-2.2-3.7-1.5-1.4-2.2-2.3-1.5-1.8 1.1.6 1.2.3.3-1.4-.7-1.1-1.6-2.1-2.2-2.1s-.8-.4-.4-.9c.3-.5-.3-1.6-1.3-2.3-1.1-.7-2.1-1.8-2.3-2.3-.2-.6-1.4-.9-2.6-.8-1.7.1-2.3-.3-2.3-1.7 0-1-.3-2.7-.6-3.7-.6-1.6-.5-1.6.9.2.8 1.1 1.3 2.4 1 2.9-.4.5-.1.6.6.2.8-.5.2-2.1-2-5.2-1.6-2.4-3.5-4.2-4-3.8-.5.3-.8 0-.7-.8.2-.7-.2-1.2-.9-1.1-.7.2-1-.4-.7-1.2.4-.8.1-1.5-.7-1.5-.7 0-1-.2-.7-.5s-.5-1.8-1.7-3.3c-9.1-10.7-10.9-12.7-11.6-12.5-.4.1-1.3-.5-2.1-1.4-1.1-1.4-1.1-1.6.2-.9.8.5-.9-1.6-3.9-4.7s-5.9-5.3-6.4-5c-.6.3-.7.2-.4-.4.4-.5-.8-2.3-2.5-3.9-1.8-1.6-2.6-2.1-1.9-1.2 1.2 1.5 1.1 1.8-.3 1.8-.9 0-1.6-.8-1.6-1.8 0-2.3-4-6.2-6.6-6.3-1 0-1.3-.3-.7-.6.7-.2-3.5-4-9.2-8.4-5.8-4.4-10.9-7.7-11.4-7.4-.6.3-1.3 0-1.7-.6-.4-.8-.3-.9.4-.5s1.2.5 1.2.3c0-.6-20.3-12.8-27.7-16.6-3.4-1.8-6.8-2.9-7.4-2.5q-1.05.6-.6-.3c1.5-2.4-43.8-20.2-55.2-21.7-1.5-.2-3.3-.6-4.1-1-.8-.3-2.7-.7-4.1-1-1.4-.2-7.3-1.3-13-2.5-20.3-4-49.8-5.7-71.4-4.1m82.9.7c.4.4 3.3 1.4 6.4 2.1s6.8 1.5 8.2 1.9c1.7.4 2.2.2 1.5-.5-1.1-1.1-12.1-4.2-15.1-4.2-.9 0-1.4.3-1 .7M721 330c0 .4 1.9 1.3 4.3 1.9 2.3.7 4.8 1.5 5.5 1.7.6.3 1.2.2 1.2-.4 0-.5-2.5-1.6-5.5-2.4s-5.5-1.2-5.5-.8m13 3.9c0 .6.3 1 .8.9.4-.1 1.8.3 3.2 1 1.4.6 5.9 2.2 10 3.7 10.5 3.7 25.6 10.7 38.3 17.7 6 3.3 11 5.8 11.3 5.6.2-.3-.8-1.1-2.4-1.9-1.5-.8-2.9-1.7-3.2-2-1.2-1.6-34.1-17.2-43.8-20.8-5.9-2.2-11.5-4.3-12.4-4.6-1.1-.4-1.8-.3-1.8.4m-233.2 26.2c-3.7 1.9-5.3 3.7-2.3 2.5 2.3-.8 4.4.4 3.8 2.2-.4 1.5-.3 1.5.6.2.8-1.1.7-1.7-.3-2.4-1.1-.8-1-1.3.8-2.7 2.7-2.3 2-2.3-2.6.2m-14.6 8.4c-2.8 2-5.2 3.8-5.2 4 0 .6 5.8-3 9-5.5 4-3.1 1.9-2.3-3.8 1.5m-27.4 31.6c-1.7 2.1-3.4 3.6-3.8 3.4-.4-.3-1.4.3-2.1 1.3-1.2 1.5-1.2 1.6.2.5.9-.7 1.8-1 2.1-.7s2-1.3 3.8-3.6c1.7-2.2 3.6-3.8 4-3.5.5.3 1.1.2 1.4-.3s-.2-.9-1-.9c-.9 0-2.9 1.7-4.6 3.8m-20.5 20.6c-3 2.8-3.7 3.8-1.8 2.6 3.2-2.3 8.2-7.3 7.2-7.3-.3 0-2.8 2.1-5.4 4.7"/><path d="M758.5 428.7c-.4 1.6-1.1 2.3-2 2-.7-.3-1.8 0-2.3.6-1 1.3 4 9.1 5.2 8 .3-.3.6.4.6 1.6 0 1.4.4 2 1.1 1.5.8-.5 1 .1.7 1.8-.3 1.5 0 2.5.7 2.5s1-.8.8-1.7c-.9-3.3 5.4-13 8.4-13 .7 0 1.3-.2 1.3-.4s.3-1.1.6-2 .1-1.6-.6-1.6c-.6 0-.8.4-.5 1 .3.5.2 1-.4 1-.5 0-1.1-.5-1.3-1-.2-.6-2.1-1.2-4.3-1.5-2.2-.2-4-.4-4-.5s-.8-.3-1.7-.5c-1.1-.2-1.9.6-2.3 2.2M699 443.5c-1.9 1.3-4 2.9-4.7 3.5-.7.5-1.5 1-1.8 1s-4.5 2.7-9.3 5.9c-10.9 7.4-24.9 15.6-30.8 18.1-3.3 1.5-4.4 2.5-4.2 3.7.2 1 1.1 1.7 1.8 1.5.8-.2 4.5-.5 8.2-.6 6.6-.2 6.8-.2 6.5 2.1-.2 1.4-5.1 7.6-11.3 14.3-6 6.6-12 13.2-13.4 14.8-1.4 1.5-1.8 1.9-1 .8.8-1.2.1-.9-1.7.8-1.8 1.6-2.9 3.4-2.6 4s.3.8-.2.4c-.7-.6-18.5 13.6-18.5 14.8 0 .3.5.2 1.2-.2s.8-.3.4.5c-.4.6-1.3 1-2 .9-1.5-.4-7.7 4.7-6.9 5.6.4.3 0 .6-.9.6-.8 0-2.5 1.2-3.9 2.7l-2.4 2.8 2.6-2.3c4.4-3.9 4-2.4-.5 1.8-4.7 4.3-7.1 5.4-4 1.7l1.9-2.2-2.2 1.9c-1.2 1-2.1 2.3-2 2.8.1.6-.4 1.3-1.2 1.6-1 .3-1.1 0-.5-.9.7-1.2.5-1.2-.9-.1-.9.8-1.6 1.7-1.5 2 .3 2.3-.4 4.2-1.2 3.7-.6-.4-.7-1.1-.4-1.7 1.1-1.7-3.1.9-4.6 2.9-1.2 1.5-1.2 1.6 0 .5 2.1-1.8 3.5-1.4 1.8.5-2.4 2.9-2.9 4.1-1.8 4.8.6.4.9.1.8-.6-.2-.6.3-1.4 1.1-1.6 1-.4 1.1.1.6 1.8-.4 1.3-1.2 2.7-1.7 3-.4.3.1 1.4 1.2 2.4s2 1.3 2 .7-.6-1.2-1.2-1.5c-.7-.2-1-.7-.7-1.1.8-.9 4 .4 3.4 1.4-.3.5.3.6 1.2.4 1-.3 2.8-1.9 4.1-3.7 1.4-2.1 2.2-2.6 2.2-1.5 0 .9-.5 1.8-1.2 2-.6.2-1.3 1.4-1.5 2.6-.2 1.6.2 2.2 1.5 2.2s1.4-.2.4-.9c-1-.6-.9-1.1.4-2.2 1.3-1 1.6-1.1 1-.1-.5.9-.3 1.3.5 1.1 3.1-.4 4.1.2 3.6 2-.4 1.7-.2 1.7 2.5.4 2.7-1.4 2.8-1.6 1.3-3.3-1.6-1.7-1.6-1.8 0-1.6.9.1 2 .8 2.5 1.5.6 1.1.8 1.1 1.2 0s.9-1 2.3.5c2 2 1.1 4.8-1.6 5.4-.8.1-5.2 3.8-9.8 8.2s-9 8-9.8 8c-.7 0-1.3.7-1.3 1.5s-.3 1.5-.7 1.5c-.8 0-4.9 3.2-8.9 6.8-1.1 1.1-3.1 2.5-4.2 3.1-1.2.7-2.2 1.7-2.2 2.3 0 .7.5.6 1.5-.2.8-.7 1.5-.9 1.5-.4s.7-.2 1.6-1.4c.8-1.2 1.9-2 2.4-1.7s1.4-.4 2-1.5 1.6-1.9 2.2-1.7c.7.1 1.2-.4 1.3-1.1 0-1.5 2.6-3.3 3.7-2.6.5.3.8.2.7-.3-.4-2.6 2.4-4.9 5.4-4.4.5.1.6-.3.2-.8-.7-1.2 2.9-3.3 4-2.3.5.4.5.2.1-.5-.6-1.1 2.6-3.6 4.9-3.8.6-.1.9-.6.8-1.2-.3-1.6 4.7-5.4 6-4.6.5.3.7.1.3-.5-.5-.9 4.9-5.7 6.6-5.7.9 0 2.3-1.5 2.3-2.6 0-.5 3.9-4.7 8.6-9.2 4.8-4.5 11.2-11.1 14.4-14.7s6.2-6.4 6.7-6.2c.5.1.6-.2.3-.8-.9-1.4 2.4-5.2 3.8-4.3q.9.45.3-.6c-.4-.6.5-2.8 2.1-4.9 1.6-2 3.7-5 4.6-6.5 1-1.5 2.3-2.5 2.9-2.1.7.4.8.3.4-.5-.4-.7 1.4-4.5 4.2-8.9 2.7-4.2 5.2-8.7 5.6-10 .4-1.2 1.4-2.2 2.2-2.2 1.9 0 3 2.8 4.8 12 3.1 15.7 2.9 15.5 5 6 2.7-12.2 6.3-28 10.8-47.5 2.2-9.4 4-17.6 4.1-18.4.3-2.3-1.6-2.1-5.3.4m-111 1.1c-.8.3-4.4 1.5-8 2.6s-8.8 3.1-11.5 4.4c-2.8 1.2-6.2 2.5-7.7 2.9-1.4.4-3.5 1.5-4.6 2.5s-2.2 1.7-2.5 1.4c-.2-.2-2.4.7-4.8 2.1-2.4 1.3-3.9 2.5-3.4 2.5.6 0 2.4-.9 4.2-2 2.9-1.7 3.1-1.7 2.6-.2-.3.9-1 2.2-1.5 2.9s-.5 1.4.2 1.8c.6.4.9.1.8-.6-.2-.6 3.8-3.3 8.7-5.9 5-2.7 8.9-5.3 8.7-6-.1-.6.3-.8.9-.5.6.4 2.9-.2 5.2-1.3s7.1-3.2 10.7-4.6c5.5-2.1 6.9-3.5 2-2m-55.2 31c-2.7 2-4.8 4.1-4.7 4.7 0 .8.2.8.6-.1.2-.6.9-1 1.3-.7.5.3 1.4-.4 2-1.5s1.6-1.7 2.2-1.4c.6.4.8.3.5-.3-.7-1.1 2-2.8 3.6-2.4.5.1.6-.3.2-.9-.8-1.3-.2-1.5-5.7 2.6m351.5-2.8c-.8.5-.8 1.3.1 3 1.2 2.2 1.3 2.2 2.7.6 1.2-1.5 1.2-1.7 0-.9-1.1.6-1.3.4-.8-.8.7-1.9-.4-2.9-2-1.9m2.9 8.8c.6 1.3 1.6 2.1 2.1 1.7.6-.4.8 0 .4 1.1s-.3 1.5.4 1c.6-.4 1.5 0 2 .7.7 1 .8.9.6-.6-.4-3.1-2-5.1-4.4-5.7-1.9-.5-2.1-.4-1.1 1.8m-105.2-.8c0 .4-7.8.6-17.2.4l-17.3-.3 2.5 2.8c1.4 1.5 3.7 4.8 5 7.3 2.4 4.4 2.5 4.9 2.7 33.5.2 15.9.5 31.8.9 35.2l.5 6.1 3.2-.9c4.1-1.2 4.2-1.2 2.7.6-.7.8-1.6 1.3-2 1-1.5-.9-4 .7-4 2.6 0 1.7.8 1.9 6.3 1.9 9-.1 9.7-.9 9.7-11.4 0-5.2-.4-8.6-1-8.6-.7 0-.7-.6-.2-1.8.5-.9 1-12.1 1.1-24.7.1-12.7.4-24.6.7-26.5.9-4.6 3.2-9.2 4.4-8.5.6.3.7 0 .4-.8s.8-3 2.5-4.9c2.6-3 2.7-3.4 1-3.5-1-.1-1.9.1-1.9.5M760.1 544c.1 8.3.5 10.7 1.8 11.7 1.4 1.2 1.4 1.2-.2.7-1.3-.5-1.6-.2-1.1.9.3.8.1 1.8-.5 2.2-.8.4-1.1-3.6-1.1-13.1 0-7.6.2-13.5.4-13.3.3.3.6 5.2.7 10.9m9.7 9.5c0 3.6-.4 6.7-.9 7.1-1 .6-1.3-9.5-.3-12 1-2.6 1.1-2 1.2 4.9M896.4 486c0 2.2.3 4 .6 4 .4 0 .5 1.1.2 2.5-.3 1.7 0 2.5.9 2.5s1 .3.3.8c-1.2.8-2.6 5.5-1.4 4.7.4-.2 1.5.4 2.4 1.4 1.3 1.4 1.4 2.1.5 2.7-.7.4-1 .3-.6-.3s.1-1.3-.7-1.6-1.7.1-2 .9-.2 1.3.3 1 1.8 1.7 3 4.4c1.2 2.8 2.6 5 3.3 5s.7-.5-.2-1.5c-.6-.8-.8-2-.4-2.6.5-.8.3-.9-.6-.4-.8.5-1.1.3-.8-.6.3-.8 1-1.3 1.6-1.2 1.2.3.5-2.4-1.1-4.5s-1.5-6.5.1-8.5c1-1.1 1.1-1.7.4-1.7s-1.1-.3-1-.8c.1-.4-.2-1.9-.6-3.4-.6-1.9-1.3-2.5-2.4-2.1-1.5.4-1.5.3-.2-.7 1.1-.9 1.2-1.3.2-1.7-.6-.2-1-.9-.6-1.4.3-.5.1-.9-.3-.9-.5 0-.9 1.8-.9 4m-388.3 10.6c-6.7 6.4-12 11.9-11.7 12.1.2.3 4.1-3.3 8.6-7.9 4.5-4.5 8.5-8.2 8.9-8.1.5.1 2.3-1.6 4-3.7 1.8-2.2 3-4 2.8-4-.3 0-5.9 5.2-12.6 11.6m-11.6.6-7 7.3 7.3-7c3.9-3.8 7.2-7.1 7.2-7.2 0-.8-1.1.2-7.5 6.9m27.6 21c0 1.8.3 2.7.6 2 .8-2 2-1.4 5.9 2.5 3.3 3.5 3.3 3.3-.6-1.4-5.4-6.8-6-7.1-5.9-3.1m379.9 2.9c0 .5.4.8.8.5.5-.3.9.8.9 2.4 0 1.7.3 3.3.7 3.7 1.3 1.3 2.4-1.2 1.9-4.5-.4-2.3-1.1-3.2-2.4-3.2-1.1 0-1.9.5-1.9 1.1m-379.6 23.4c0 9.3.2 13.3.3 8.8.2-4.5.2-12.2 0-17-.1-4.8-.3-1.2-.3 8.2m383.3-14.8c-1.1 1.1-.8 2.5.4 1.7.7-.4.9 0 .5 1.2-.3 1.1-.1 3.2.4 4.9 1 2.9 1 2.9.6.2-.2-1.5.1-2.7.7-2.7s.7-.3.4-.7c-.4-.3-.1-1.3.6-2.1 1-1.3.9-1.4-.2-.7-1.1.6-1.3.4-.8-.8.6-1.7-1.3-2.4-2.6-1M552 541.3c0 .2 2 2.5 4.5 4.9 2.5 2.5 4.5 4.9 4.5 5.4s-2.3 3.3-5 6.3c-4.8 5.3-6.4 7.5-3.7 5.2.8-.6 1.8-.7 2.2-.3.5.4.6.2.4-.3-.5-1 5.7-7.6 6.4-6.9.2.2 1.2-.5 2.3-1.7 1.9-2.1 1.9-2.2-1-4.3-1.6-1.1-4.7-3.6-6.8-5.5-2.1-1.8-3.8-3.1-3.8-2.8m279.3 3.1c-1.6 1.2-4.5 3.2-6.6 4.4-4.1 2.4-4.4 2.6-10.2 7.8l-4 3.5 5.5-3.7c3-2 5.9-4.1 6.5-4.5 3.5-2.9 10.6-7.9 11.1-7.9.3 0 .3.4 0 .8-.3.5.1.9.9.9s1.3-.3 1-.5c-.3-.3.2-1 1.1-1.6 1.3-1 1.3-1.2-.5-1.3-1.2-.1-3.3.8-4.8 2.1m-366.2 9.5c-2.7 5.5-6.4 13.6-8 17.8-3.5 8.7-7.5 22.2-6.2 20.7.4-.5 1.6-3.7 2.5-7.2 2.1-7.8 7.4-20.4 13.2-31.9 2.4-4.7 4.2-8.8 4-9.1-.3-.2-2.8 4.1-5.5 9.7"/><path d="M829.6 549.1c-1.4 1.1-2.6 2.7-2.6 3.4s-1.5 3-3.4 4.9c-1.8 2-3.1 3.6-2.8 3.6s.1.5-.6 1.2c-1.6 1.6-1.5 2.5.3 2.5.8 0 1.2-.4.9-.9-.7-1.1 1.6-3.9 2.6-3.3.4.3.7-.3.6-1.3 0-1 .5-1.6 1.4-1.4.8.2 1.2 0 .8-.3-1.1-1.2 1.1-4.6 2.5-3.9.7.4.9.4.5-.1-.9-1 1-4.7 2.1-4.1.4.3.8-.1.8-.9 0-1.9.1-1.9-3.1.6M579 558.6c-6.2 4.9-7.5 6.4-2.1 2.6 5.1-3.6 7.3-4.2 4.6-1.2-1.7 1.8-1.7 2-.2 1.4.9-.3 1.8-.9 1.8-1.3.2-1.1.6-5.1.5-5 0 0-2.1 1.6-4.6 3.5m235 11.3c0 .5-.8 1.7-1.7 2.7-1 1-1.8 2-1.8 2.4 0 .3-1 1.6-2.2 3-2.7 2.8-2.9 3.7-.9 3.7.8 0 1.4-.3 1.3-.6-.3-1.3 2.5-5.1 3.4-4.6.5.4.9.3.8-.2-.3-2 .2-3.3 1.2-3.1.6.2 1.3-.7 1.5-2 .2-1.2-.1-2.2-.6-2.2-.6 0-1 .4-1 .9m-30.1 13.6c-4.3 4.4-10 10.8-12.8 14.2-4.9 5.9-9.1 9.4-9.1 7.5 0-.5-.7-.9-1.5-.9s-1.2.4-.9.9c1 1.6-.9.8-4.3-1.8-1.8-1.4-3.1-3-2.8-3.5.4-.5.1-.9-.5-.9-.7 0-2.6-1-4.3-2.2-3-1.9-3-1.9-1.2-.1 7.4 7.6 13.5 12.1 15.4 11.6 1.1-.3 5.1-4.2 8.8-8.6 3.8-4.5 10.1-11.6 14.2-15.9s7.3-7.9 7-8.1c-.2-.1-3.8 3.4-8 7.8m-159-4.1c-11 8.7-21.1 15.6-22.1 15-.6-.4-.8-.3-.4.4.8 1.3-4 5.2-6.3 5.2-1 0-2.6.7-3.7 1.5-1.9 1.4-1.9 1.4.4 3 1.2.9 2 2 1.8 2.4-.3.4.1.8.8.8.8 0 1.2-.6.9-1.4-.3-.7-.9-1.3-1.4-1.3-2 0-.7-2 2.9-4.1 2-1.2 5.5-3.7 7.8-5.5 2.2-1.8 5.4-3.4 7-3.6 2-.2 3-.9 3.2-2.3.3-2.2 4.2-5.4 4.2-3.4 0 .5.5.7 1.1.3.8-.4.7-.9-.2-1.6-1.1-.7-.9-.8.6-.5 1.1.2 1.9.8 1.8 1.5-.2.6.4.9 1.3.5 1.2-.4 1.4 0 .8 2.2-.5 2-.4 2.6.5 2.1.6-.4 1.1-1.6 1.1-2.6 0-1.3.9-2.2 2.5-2.6 4.1-1 2.9-1.9-2-1.6-2.5.2-4.5 0-4.5-.5 0-1.6 4.1-4.8 6.1-4.8 1 0 1.9-.4 2-1 .2-2.1-2-1.4-6.2 1.9m12.9 4.8c3.1 2.9 7.1 6.6 8.8 8.3 13.7 13 26.4 24.1 26.4 23.2 0-.5-39.8-36.7-40.4-36.7-.3 0 2.1 2.4 5.2 5.2m91.9 15.2c3.2 3.5 6 5.9 6.2 5.3s-.1-1.3-.8-1.5-.8-.8-.3-1.5c.6-.8.2-1.9-1.1-3.2-1.6-1.6-1.9-1.7-1.4-.3.4 1.2.2 1.5-.9 1.1-2.1-.8-1.7-3.1.6-3.6 1.8-.4 1.8-.5-.2-.5-5.6 0-3.6-.6 3.7-1.2l8-.6-9.8-.2-9.9-.2zm196.6.1c0 3.8.2 5.3.4 3.2.2-2 .2-5.2 0-7-.2-1.7-.4-.1-.4 3.8m-476.7-4.7c-.9 1.5-3.5 14.5-4.6 22.8-1.2 9-1.6 38.1-.6 39.1.3.3.6-6.1.6-14.3 0-16.8 1.2-28.7 3.9-40.4 1.7-7.5 1.9-9.1.7-7.2m72.3 3.1c-1.9 1.5-7.4 5.5-12.3 8.9s-8.4 6.2-7.7 6.2-.1 1.1-1.6 2.5c-4.2 3.7-2.1 3 2.5-.9 2.3-1.8 8.6-6.4 14.1-10.1 10.9-7.2 11.8-8 9.7-8.8-.7-.3-2.9.7-4.7 2.2m-165.6 7.6c0 4.4.2 6.1.4 3.7.2-2.3.2-5.9 0-8-.2-2-.4-.1-.4 4.3m9.1 1.5c0 5.2.1 7.4.3 4.7.2-2.6.2-6.8 0-9.5-.2-2.6-.3-.4-.3 4.8"/><path d="M789.7 601c-.9 1.1-1.7 2.4-1.7 2.9s-1.3 2.2-2.8 3.8c-1.5 1.5-3.8 4.5-5.1 6.6s-2.6 3.6-2.9 3.3-1 .3-1.6 1.3c-2.6 4.5-10 12.7-12 13.2-1.5.4-2.8-.2-4.4-2-1.3-1.4-4.1-4.5-6.3-6.8-2.1-2.3-3.9-4.5-3.9-4.8s-1.3-1.7-2.9-3.1c-1.7-1.4-3.3-3.3-3.6-4.3s-1.8-2.4-3.3-3c-2.6-1.2-2.6-1.1.8 2.6 1.9 2 3.7 4 4 4.3 12 12.6 14 15.1 13.4 16.1q-.6 1.05.3.6c1.2-.7 3.6 1.6 2.8 2.6-.3.4-.2.5.2.2.3-.3 1.2 0 1.9.6.8.7 1.4.7 1.9-.1.3-.6 1.2-.7 1.8-.4.7.4.9.4.5-.1-1.1-1.1 1.1-4.7 2.4-3.9.6.4.8.3.5-.3-.4-.6 0-1.6.8-2.3s1.5-1.9 1.5-2.7c0-1 .6-1.3 1.6-.9.8.3 1.3.2 1-.3-.7-1 1.9-4.6 3.3-4.6.6 0 1-.2.9-.5-.3-1.1 2.4-5 3.2-4.5.5.3 1.2 0 1.6-.6.4-.8.3-.9-.4-.5-1.8 1.1-1.4-.1 1-2.9 1.1-1.3 2.6-2.1 3.2-1.8s.8.3.4-.2c-1-1.1 1.1-4.7 2.3-4 .5.4.8.3.7-.2-.1-.4.3-1.8 1-3.1 1.6-2.7.2-2.9-2.1-.2m-220.2 3.5c-2.7 2.5-4.5 4.5-3.9 4.5.7 0 1.4-.7 1.8-1.5.3-.8 1.1-1.5 1.8-1.5s1.9-.9 2.6-2c.7-1.2 1.6-1.9 2.1-1.6.4.3.8-.1.8-.9s-.1-1.5-.1-1.5c-.1.1-2.3 2.1-5.1 4.5M926.3 615c0 4.7.2 6.6.4 4.2.2-2.3.2-6.1 0-8.5-.2-2.3-.4-.4-.4 4.3m-327.9-5.3c.2 1 .7 1.8 1.2 1.8 2.4 0 21.1 15.9 20.7 17.6-.2.4.3.6 1 .3 1.4-.5 7.1 4.9 6.5 6.2-.1.4.5.8 1.6 1 2.4.3 7.7 5.4 6.9 6.7-.3.6-.1.7.4.4 1.3-.8 6.5 3.1 5.8 4.3-.3.5 0 1.2.6 1.6.8.4.9.3.5-.4s-.3-1.2.3-1.2c.5 0 1.4.6 1.8 1.3s3.4 3.4 6.5 6.1c3.2 2.6 5.5 5.3 5.1 5.9s-.1.7.6.2c1.4-.8 7.3 4.3 6.5 5.7-.3.5 0 .7.8.6.7-.2 1.2.3 1 1-.1.8.2 1.1.9.6 1.5-.9-13.5-15.4-23.4-22.7-2.1-1.5-8.2-6.7-13.6-11.5-20.2-17.8-31-27.2-31.4-27.2-.3 0-.4.8-.3 1.7m226.8 3.3c-1.2 1-2.1 2.2-2 2.7.1.4-.6 2.4-1.7 4.3-1 1.9-2 4.1-2.1 4.8-.1.8-1 2.2-1.8 3.1-.9 1-1.6 2.2-1.6 2.8 0 .5-.9 1.8-2 2.8-2.3 2.1-2.5 3.2-.6 3.2.7 0 1.3-.7 1.2-1.6 0-.9.5-1.5 1.2-1.4.6.2 1.1 0 1.1-.5-.3-2 .2-3.3 1.1-2.7.6.4 1 .3.9-.2-.3-1.9.2-3.4 1-2.9.5.3.8-.2.7-1.2 0-.9.5-1.6 1.2-1.5.6.2 1.1 0 1-.5-.1-.4 1-3.3 2.6-6.5s2.7-5.9 2.5-6.1c-.2-.3-1.4.4-2.7 1.4m-321.7 4c.7 1.1-12.7 14-13.8 13.3-.6-.4-.7-.1-.2.6.4.8-.4 2.5-2.1 4.4-1.6 1.8 1.6-1.1 6.9-6.3 10.5-10.1 12.5-12.7 10.2-12.7-.8 0-1.2.3-1 .7m173.4 2.2c1.8 2 3 4.1 2.7 4.7-.4.6-.1.9.6.6 1.7-.7 8.3 6 7.4 7.4-.4.7-.1.9.8.5 2.1-.8.9-2.4-7.8-10.4-3.9-3.6-5.6-4.8-3.7-2.8m142.1-1.7c-.7.8-1.8 1.5-2.4 1.5-.6.1-2.9 1.7-5.1 3.6l-4 3.6 4.5-2.8c5.6-3.5 10.5-7.4 9.2-7.4-.5 0-1.5.7-2.2 1.5m-274.5 5.6c-2.2 1.7-4.1 3.4-4.3 4-.2.5-.9.9-1.7.9-.7 0-1.8.7-2.5 1.5-1.9 2.3.4 1.8 3.2-.8 1.3-1.2 3.7-2.9 5.2-3.7s3.2-2.2 3.7-3.2c1.2-2.3 1.2-2.3-3.6 1.3m-54-1.1c-.4.6-3 2.8-5.9 4.9-7.4 5.5-18.3 16.5-24 24.1-3.4 4.7-3.7 5.2-.9 2 8-9.5 19.1-20.4 25.6-25.2 3.7-2.7 6.7-5.4 6.7-5.9 0-1.2-.7-1.1-1.5.1m-58.1 16.5c0 7.1.1 9.9.3 6.2s.2-9.6 0-13-.3-.4-.3 6.8m416.9-.5c0 3.6.2 5 .4 3.2.2-1.7.2-4.7 0-6.5-.2-1.7-.4-.3-.4 3.3m-302.4-1.7c-1.4 1.2-3.5 2.7-4.5 3.4-1.8 1.2-1.8 1.2.1.6 1.1-.3 1.7-.3 1.3.2-.4.4-1.8.8-3 .9-1.3.1-2.3.7-2.3 1.6 0 .8-.9 1.6-2 1.9-2.7.5-6 2.9-6 4.4 0 .6-1 1.3-2.3 1.3-4.9.3-5.1 1.2-5.4 28.1-.1 13.8.1 25.5.5 25.9s.7-10.3.7-23.7.4-24.9.8-25.6c1.7-2.7 21.5-15.3 24-15.3.8 0 1.2 5.8 1.5 19.2l.2 19.3.3-22.3c.1-12.2-.1-22.2-.5-22.2-.5 0-2 1.1-3.4 2.3m-67.9 9.1c-2.4 3-4.7 5.3-5 5.1s-.6.5-.6 1.6c0 1 .3 1.5.6 1.1 1-1.2 8.3-10.6 9.3-12 .5-.6.7-1.2.5-1.2-.3 0-2.5 2.4-4.8 5.4m39.5-3.1c-5.4 3.8-25.5 19.8-25.5 20.3 0 .2 4.9-3.3 10.8-7.8 12.5-9.6 15.1-11.5 17.2-12.8.8-.5 1.2-1.1 1-1.4-.3-.2-1.9.5-3.5 1.7m287.5 2.2c-1.9 1.9-2.9 3.5-2.3 3.5.7 0 1.5-.5 1.8-1 .4-.6 1.1-.8 1.6-.5s.6-.1.3-.9c-.3-.9-.2-1.6.4-1.6.5 0 1.2-.7 1.6-1.5.8-2.1.4-1.9-3.4 2m-101 1c.8 1.1 2.2 2.6 3 3.3 1.3 1 1.2 1.1-.5.5-1.8-.6-1.9-.5-.6 1.1 1.1 1.2 1.6 1.4 2.2.5 1-1.7.3-3.1-2.9-5.4-2.7-1.9-2.7-1.9-1.2 0m-249.3 2.6c-1.5 1.1-2.5 2.5-2.2 2.9.3.5-1 2.1-3 3.7-1.9 1.5-3.5 3.2-3.5 3.8 0 .5 1.8-.8 3.9-3 2.2-2.1 3.9-4.1 3.8-4.5s.9-1.7 2.3-2.8c3.2-2.7 2.3-2.8-1.3-.1m343.3 5.6c-1.9 2.5-4.2 5.5-5 6.7-1.4 2-1.4 2.1.6.3 1.1-.9 2.4-1.5 2.7-1.2.4.3.5.2.2-.1-.8-1.2 1.6-4.5 2.7-3.8.7.5.8.2.4-.5-1-1.5 2.3-5.3 3.7-4.4.6.3.7.1.3-.5-1.1-1.9-1.9-1.4-5.6 3.5"/><path d="m712 653 .9 3-8.7.1c-4.8.1-10.5.1-12.7.1-2.2-.1-5.7.3-7.8.9-3.3.9-3.8 1.4-3.5 3.5.3 2.8 2.1 3.4 2.6.8.3-1.1 0-1.4-1-.8-.9.6-.9.3.2-1 .8-1.1 1.6-1.4 1.8-.7.3.8 5.9 1 18.5.9l18.2-.2-18-.6c-16.2-.5-16.9-.6-7-.9 6.1-.2 13.9-.2 17.4-.1l6.4.2-3.8-4.1c-2.1-2.3-3.9-4.1-4.1-4.1-.1 0 .1 1.3.6 3m-279.1 6.3c-.2 2.7 0 5.1.4 5.4.5.3.6 1.6.2 3-.4 1.8-.2 2.3.6 1.7.9-.5 1 .2.5 2.7s-.3 3 .5 2.2.8-2.9 0-8c-.6-3.7-1.2-7.9-1.4-9.3s-.5-.3-.8 2.3m19.3 3.5c-4.9 7.5-10.6 21.2-8.3 19.8.6-.4 1.1-1.4 1.1-2.2 0-1.8 5-12.6 8.5-18.2 1.4-2.3 2.4-4.2 2.2-4.2-.3 0-1.9 2.1-3.5 4.8m16.4-3.6c.8 1.2-2.8 6.8-3.9 6.1-.6-.3-.7-.1-.3.5s.2 2.1-.4 3.2-.7 2-.2 2c.4 0 2.2-2.9 3.9-6.3 2.2-4.5 2.7-6.4 1.8-6.4-.8 0-1.2.4-.9.9m319.2 8.1c-4.6 4.5-9.9 10.5-11.1 12.4-.4.7-.1 1 .8.9 2-.3 6.5-4.6 6.2-5.9-.1-.6.3-1.1.8-1.2 1.7-.1 3.6-1.6 3-2.5-.8-1.2 4.5-7.1 5.7-6.3.7.3.8.1.4-.5-1-1.7-1-1.7-5.8 3.1m-103.8-3c0 1.3 4.2 6.8 8.5 11l4 4-8.5-.8c-4.7-.4-9-1.1-9.7-1.7-.8-.6-1.1-.4-.9.8.2 1.5 1.2 1.8 5.5 1.5 3.8-.2 5.1.1 4.6.9s.8 1 4.4.9c2.8-.2 5.1-.7 5.1-1.2 0-.6-2.1-3.4-4.7-6.5-2.7-3-5.6-6.4-6.5-7.6-1-1.1-1.8-1.7-1.8-1.3m13 2.5c0 .5.8 1.6 1.8 2.3 1.5 1.3 1.6 1.2.3-.4-.8-1-.9-1.7-.3-1.7s1.4.5 1.7 1c.4.6 1 .8 1.4.6.4-.3.8.1.9.9s.3 2.2.4 3 1.1 2.4 2.3 3.5c2 1.9 2.2 1.9 2.2.3 0-1-.9-2.8-2-4-1.1-1.3-1.8-2.5-1.6-2.8.3-.2 3.7-.6 7.7-.8 10.2-.5 10.2-1.7 0-1.7-4.7 0-10-.3-11.7-.6-1.8-.4-3.1-.2-3.1.4m24.5 2.2c-.4.6.5 1 2 1 1.4 0 4.2.7 6.2 1.5l3.7 1.6-2.4-2.6c-2.4-2.6-8.3-3.5-9.5-1.5m29.1 6.4c-4.8 4.1-7.7 4.1-13.1.2l-4-2.9 4.3 4.1c3.9 3.7 4.6 3.9 7.5 3.1 1.7-.5 4.7-2.5 6.7-4.4 4.4-4.5 3.7-4.5-1.4-.1m-35.8 7.2c3.4 3 6 6 5.9 6.6s.7 1.2 1.7 1.4c2.5.4 12.7 10.5 11.9 11.7-.3.6-.1.7.4.4.6-.4 1.8.2 2.8 1.3s1.5 2 1 2c-.4 0-.2.7.5 1.5s1.6 1.3 2 1 1.3.1 1.9.9c1.3 1.5 4.6 1.5 4.6-.1 0-1.5 7.1-7.3 7.9-6.5.4.4.6 0 .4-.8-.1-.8.2-1.4.9-1.5 1.5 0 2.6-1.2 2.9-3 .1-.8.1-1.5 0-1.5-.2 0-3.4 2.9-7.2 6.5s-7.4 6.4-8 6.3c-.7-.2-8.5-7.4-17.4-16.1-9-8.6-16.8-15.7-17.3-15.7-.6 0 1.8 2.5 5.1 5.6m-164.4 8.9c0 7.1.1 9.9.3 6.2s.2-9.6 0-13-.3-.4-.3 6.8m220.1-5.7c-2.2 2.1-4.9 4.9-6 6.2-1.3 1.7-.8 1.4 1.6-.8 1.9-1.8 3.9-2.9 4.3-2.5.4.5.6.1.4-.7-.1-.8.2-1.4.9-1.5 1.5 0 2.6-1.2 2.9-3 .3-1.9.6-2.1-4.1 2.3m-298.5.1c-3.2 4.5-7.1 13.6-8.5 19.9-1.6 6.7-1.1 8.4.5 2.1 2.3-9 4.2-13.8 7.5-19.3 3.6-6.1 3.9-7.4.5-2.7m367.1 5.3c-1.2 2.8-1.9 5.3-1.6 5.6s.5 0 .5-.7.4-.9 1-.6.7-.1.4-.9c-.3-.9-.1-1.6.5-1.6s.8-.7.5-1.5c-.4-.8-.1-1.5.6-1.5.6 0 .9-.4.6-.9-.4-.5-.1-1.1.6-1.3.8-.3.9-.6.1-1.1-.6-.4-1.9 1.4-3.2 4.5M652.9 700c1.8 1.8 2.5 2 3.1 1s3.1-1.1 11.8-.3c11.7 1 10.4.5 21.5 9.1 2.3 1.9 5.2 4.2 6.5 5.3 2 1.7 2.5 1.8 5 .5 1.6-.8 3.5-2.3 4.3-3.3 1.3-1.7 1.3-1.7-.6-.2-1.2 1-3.5 1.6-5.6 1.5-3.8-.2-6.7-2.1-14.8-9.4-4.1-3.7-4.8-4-12.5-4.6-4.5-.4-11-.9-14.6-1.2l-6.5-.6zm60.5 3.5c-.5 1.2-.9 1.3-1.4.5-.5-.9-1-.5-1.5 1.1-.4 1.3-1.5 3.3-2.3 4.4-.9 1.1.2.3 2.4-1.8 2.2-2 4.3-3.7 4.7-3.7s3.2 1.8 6.2 4 5.5 3.8 5.5 3.6c0-.5-8.9-7.3-11.8-9-.7-.4-1.5-.1-1.8.9m55.8 1c-.4.5-.7 1.3-.7 1.6 0 1-5.4 6.9-6.2 6.9-.5 0-2.5 1.7-4.4 3.7-1.8 2.1-2.2 2.8-.8 1.5 1.4-1.2 3-2.2 3.5-2.2.6 0 2.4-1.5 4-3.3 1.6-1.7 4.2-4.2 5.6-5.4l2.7-2.2.4 2.2c.3 1.6.5 1.4.6-.8.1-2.5-.3-3.1-2-3.1-1.1 0-2.3.5-2.7 1.1m58.8 9.7c-7.5 14.1-16.4 24.7-36.9 44.1-2.8 2.7-5.1 5.3-5.1 6 0 .6.6.2 1.4-.9.8-1 2-1.9 2.8-1.9.7 0 1.3-.6 1.3-1.3 0-.6.5-1.3 1-1.4.6-.1 2.1-1.5 3.3-3 1.3-1.6 2.7-2.6 3.1-2.3.8.4 10.2-8.6 9.9-9.5-.5-1.1 4.6-6.9 5.5-6.3.6.3.7.1.4-.4-.4-.6.4-1.8 1.8-2.7s2.4-2 2.3-2.4c-.4-1.2 3.5-7.1 4.4-6.6.5.3.8.2.7-.3-.3-2 .2-3.4 1.1-2.8.6.4.9.3.8-.2-.4-1.6 1.4-5.3 2.3-4.8.5.3.6-.2.2-1.1-.4-1.2-.3-1.5.6-1 .6.4 1 .4.9-.1-.4-1.6 1.4-5.3 2.3-4.8.5.3.6-.1.3-.9-.3-.9-.7-1.6-.9-1.6-.1 0-1.7 2.8-3.5 6.2m-161.9-2.1c.5 1 1.4 2.1 1.9 2.4.6.4.8 1 .5 1.4-.2.5.5 1.7 1.7 2.7 1.2 1.1 1.8 1.3 1.4.6-1.2-2.1.4-1.3 3 1.5 1.3 1.4 2.6 2.4 2.9 2.2.2-.3-2.5-3.2-6-6.5s-6-5.3-5.4-4.3m109.2 5.9c0 3.6.2 5 .4 3.2.2-1.7.2-4.7 0-6.5-.2-1.7-.4-.3-.4 3.3m-47.3-3.9c0 1.8-4.1 5.9-5.8 5.9-.7 0-1.7 1.1-2.2 2.5s-1.6 2.8-2.4 3.1c-1.6.6-10.3 8.4-9.4 8.4 1.3 0 6.3-3 6.3-3.8 0-1.5 6.2-6.2 7.1-5.4.5.4.6.3.2-.2-.8-1 4.1-5.8 5.2-5.1.4.3 1.8-.8 3.1-2.3s2-2.4 1.5-2-1.5 0-2.2-1c-1.2-1.5-1.3-1.5-1.4-.1m84.4 7.6c-2.1 2.7-4.2 5.1-4.7 5.4-.5.4-.5.9 0 1.2.6.4 1.6-.5 2.3-1.8.7-1.4 1.7-2.5 2.1-2.5s1.6-1.6 2.8-3.5c1.1-1.9 1.9-3.5 1.7-3.5s-2.1 2.1-4.2 4.7m-59.5-3.2c-.1.3-.2.9-.3 1.5-.1 1.2-4.7 5.5-6.6 6.3-.8.3 1.9.5 6 .5 4.1-.1 6.2-.3 4.5-.5-5.3-.7-5.7-1-4.3-3.5 1.3-2.4 1.9-4.8 1.2-4.8-.2 0-.5.2-.5.5m-118.1 1.2c1.7.2 4.7.2 6.5 0 1.7-.2.3-.4-3.3-.4s-5 .2-3.2.4m255.6 6.3c-1.7 3.3-2.7 5.7-2.2 5.4 1-.6 6.1-10.5 5.6-10.9-.2-.2-1.7 2.3-3.4 5.5m-293.7-4.4c-1.9 1.9 3.1 2.3 31.5 2.4 17.1 0 32.2.3 33.4.6s2.5.1 2.8-.5c.4-.7.1-.8-.8-.5s-1.6.2-1.6-.4c0-.5-.7-1.3-1.6-1.6-.8-.3-1.2-.2-.9.4.4.6-2.3.9-7.2.8-7.2-.1-7.4-.2-2.8-.8 2.8-.3-7.9-.7-23.6-.8s-28.9.1-29.2.4m-29.3 2.3c.3.5-.3 1.1-1.4 1.4s-2 1.1-2 1.9c0 1 .3.9 1-.2.5-.8 1-1 1-.4s.7 1.1 1.5 1.1 1.2-.4.9-.9c-.3-.4.4-.8 1.5-.8 1 0 2.2.6 2.4 1.2.4 1 .6 1 .6.1.1-.6-.9-1.9-2.1-2.7-2.5-1.8-4.2-2.1-3.4-.7m197.1 2.1c-4.4.6-4 .7 3.4.8 4.6.1 8.2 0 8-.2-1-.8-6.8-1.1-11.4-.6m-247.7.7c6.8.2 17.6.2 24 0 6.4-.1.9-.3-12.3-.3s-18.5.2-11.7.3m173.8 8.3c.5.8.9 1.9.9 2.5 0 .5.7 1 1.5 1 .8.1 1.4.7 1.2 1.5s0 1.2.4.8c1-1.1 3.5 1.2 2.7 2.6-.3.6.3.3 1.4-.7 1.1-.9 2.2-1.4 2.6-1.1.3.3 1-.4 1.7-1.5.6-1.2 1.5-1.9 1.9-1.6.5.2 1.4-.2 2-.9 2-2.4-1.2-1.4-5.1 1.6l-3.5 2.7-4.3-4.2c-2.3-2.3-3.9-3.5-3.4-2.7m193.1 1.6c.2.6-1.4 4.2-3.6 7.8-2.2 3.7-3.6 6.4-3.1 6.1 1-.6 7.2-10.9 8.2-13.6.4-.9.1-1.6-.7-1.6-.7 0-1.1.6-.8 1.3m10.7.1c-.4 1-.8 2-.9 2.3-1 2.8-1.9 3.9-2.8 3.3-.6-.4-.8 0-.4 1 .3.9.2 1.9-.3 2.2-.6.4-1 1.2-1 1.8 0 .7.6.4 1.4-.5.7-1 1.6-1.5 2-1.1s.4-.1 0-1.1c-.5-1.3-.4-1.7.4-1.2s1 .1.5-1c-.5-1.3-.3-1.5.8-.9.8.4 1.1.5.7 0-.4-.4-.1-2 .8-3.6.8-1.6 1-2.9.5-2.9s-1.2.8-1.7 1.7m-313.1 7c2.6.2 6.7.2 9 0s.2-.3-4.8-.3c-4.9 0-6.8.1-4.2.3m24.2.3 11 .6-8.5.5c-4.7.3 4.6.7 20.5.9 16 .2 32.8.4 37.5.6 7.9.2 8.6.1 8.7-1.7.2-1.6-.5-1.9-4-1.8l-4.2.2 4 .7c6.9 1.2 3.6 1.4-18 1-9.4-.2-12.7-.5-10-1 2.2-.4-7.7-.7-22-.7-17.5.1-22.4.3-15 .7m27.8.7c-2.9.2-7.8.2-11 0s-.8-.3 5.2-.3c6.1 0 8.7.1 5.8.3m154.4.6c-7.1 5.6-9.1 7.8-4.1 4.2 4.5-3.1 8.4-6.6 7.3-6.5-.2.1-1.7 1.1-3.2 2.3m97.7 7.7c-1.5 2.2-2.4 4.3-2.1 4.7.4.3.9-.2 1.3-1.1.3-.9 1.1-1.3 1.7-.9.6.3.7.1.3-.5-.9-1.5 1.8-5.5 2.9-4.4.5.4.5.1.1-.6-1-1.8-1.3-1.6-4.2 2.8m-286.2 5.6c.7.6 31.9.6 32.6-.1.3-.3-7-.5-16.3-.5s-16.6.3-16.3.6m-26.9 4.1c2 .2 5.4.2 7.5 0 2-.2.3-.4-3.8-.4s-5.8.2-3.7.4m14.5 0c1.7.2 4.7.2 6.5 0 1.7-.2.3-.4-3.3-.4s-5 .2-3.2.4m194 3.8c-1.5 1.4-3 2.5-3.4 2.5-.3 0-2.3 1.3-4.3 2.8-2 1.6-6.1 4.2-9.1 5.8s-6.3 3.7-7.4 4.6c-1.8 1.7-1.8 1.7.2 1.5 1.1 0 1.8-.5 1.6-.9-.5-.8 1.1-1.2 2.9-.9.5.1.5-.4.1-1-.5-.9-.2-1 .9-.6 1 .3 1.7.2 1.7-.3 0-1.4 6.2-5 7.3-4.3.6.3.7.1.3-.5-.4-.7-.2-1.2.3-1.2 2.1 0 2.6-.3 3.9-2.2.7-1 1.6-1.7 2-1.5.4.1 2.2-1.2 4-3 3.9-3.8 3-4.5-1-.8m93.7 2.5c-1.4 2.7-3.1 4.9-8.5 10.9-.8.9-2.9 3.5-4.6 5.8-1.7 2.4-3.5 3.9-3.9 3.5-.5-.4-.5-.1-.1.6.5.9.1 1.5-1.3 1.9-1.2.3-2.1.9-2.1 1.4 0 1.5-6.2 7.4-7.4 7.1-.6-.2-.8 0-.4.4s-.6 1.7-2.2 2.9-2.7 2.5-2.3 2.8c.3.4-.6 1.1-2.1 1.6-1.4.6-2.6 1.5-2.6 2.1s-.5.8-1.2.4-.8-.3-.4.4.1 1.2-.8 1.2-2.2 1.3-3.1 3c-.8 1.6-1.9 2.9-2.3 2.8s-2.3 1.3-4.2 3.2c-2 1.9-5.1 4.7-7 6.1-2.2 1.7-2.8 2.6-1.7 2.6.9 0 1.4-.4 1.2-.8-.6-.8 2.5-2.3 4-2 .5.2.7-.1.3-.5-.9-.9 3.3-4 4.7-3.6.6.2.7 0 .3-.4-.8-.8 3.2-4.1 4.5-3.6.4.1.6-.4.5-1-.2-.7.3-1.2 1-1 .8.1 1.1-.1.8-.6-.6-.9 5.4-5.8 6.7-5.4.4.1.6-.2.5-.6-.3-.9 4.8-6.3 5.9-6.2.5 0 .8-.3.8-.8.1-1.1 6.5-7.8 6.5-6.7 0 .4 1.1-.2 2.5-1.5 1.3-1.2 2.2-2.6 2-3-.7-1.1 5.6-8.1 6.6-7.4.5.3.9.2.8-.3-.3-2 .2-3.4 1.1-2.8.6.4.9.1.8-.7-.2-.7.4-1.2 1.2-1s1.2 0 .8-.3c-1.1-1.2 1.1-4.6 2.5-3.9.7.4.9.4.5-.1-1-1.1 1.1-4.7 2.3-4 .5.4.9.3.8-.2-.4-1.6 1.3-4.3 2.4-3.6.6.3.7.1.3-.5-1.2-2-2.5-1.4-4.1 1.8m-376.7 5.9c2 2.2 3.8 3.5 4 3.1.3-.9-5.7-6.9-7-7-.4 0 .9 1.8 3 3.9m345.7 15.5c-15.2 15.4-25.1 24.1-37.9 33-5 3.4-6.9 5.3-4 3.8 1.7-.9 10.8-7.4 13.9-9.9.6-.5 2.6-1.9 4.5-3.3 1.9-1.3 4.1-3.2 4.8-4.2s1.9-1.8 2.6-1.8 4-2.9 7.3-6.5 6.6-6.5 7.2-6.5 1.1-.4 1.1-.9c0-.4 2.8-3.8 6.3-7.4 3.4-3.7 7.3-8 8.7-9.7s2.7-3.3 2.9-3.5c.2-.3.2-.5 0-.4-.2 0-8 7.8-17.4 17.3m-93.7-5.1c-1.6 1.5-12 6.7-13.6 6.7-.6 0-1.2.4-1.4 1-.1.5-1.5 1.1-3 1.2s-2.5.4-2.3.7c.5.4-5.3 2.6-14.3 5.5-2.4.8-4.8 1.9-5.5 2.4-.7.6-3.7 1.7-6.7 2.4-5.1 1.4-5.4 1.5-3.2 2.7 1.6.8 2.2.9 2.2 0 0-.6.7-.9 1.5-.5.8.3 1.5.2 1.5-.3 0-1.1 7.1-3.2 8.3-2.4.6.3.7.1.3-.5-.4-.7-.1-1.2.6-1.2s2.6-.7 4.3-1.6c1.6-.8 4.2-1.6 5.6-1.7 1.5-.1 2.6-.4 2.3-.6-.8-.8 6.9-4.2 8.3-3.7.8.3 1.2.2.9-.2-.7-1.2 8.3-5.4 9.6-4.6.7.5.8.2.3-.6-.6-1-.4-1.2.9-.7 1.1.5 1.5.3 1-.5s-.1-.9 1.2-.4c1 .4 1.5.4 1.1 0s.5-1.6 2-2.6c2-1.2 2.3-1.8 1.1-1.8-.9 0-2.3.6-3 1.3M519 791.1c0 .5.5.7 1 .4.6-.3 1-.2 1 .4s1.4 1.7 3 2.6c1.7.9 3 1.1 3 .5 0-.5-.4-1-.8-1-.5 0-1.9-.9-3.2-2-2.6-2.2-4-2.6-4-.9m-90 1.8c0 .4.9 1.6 2 2.6 1 .9 1.8 2.2 1.7 2.8s.5 1.1 1.3 1.2c.8 0 1.4.6 1.3 1.1-.1.6 2 3.3 4.8 6 2.7 2.6 4.9 4.4 4.9 3.9 0-.4 1.2.2 2.8 1.6 2.7 2.4 2.7 2.3-.2-.8-1.6-1.8-3.2-3-3.6-2.8-.8.5-5.6-4.3-5.3-5.3 0-.4-2.1-3-4.8-5.9-2.7-2.8-4.9-4.8-4.9-4.4m99 3c0 .8 4.4 3.1 6.1 3.1.6 0 1.7.7 2.6 1.5.8.9 1.8 1.3 2.1 1s.1-.9-.4-1.5c-1.5-1.4-10.4-5-10.4-4.1m162.9 13.5c-.3.3-2 .8-3.8 1.1-1.9.3-3.7.8-4.1 1-.3.2-6 1.1-12.6 2-6.5.9-13 1.9-14.4 2.2s-14.6.8-29.5 1c-16.1.3-27.4.9-28 1.5q-1.05.9 2.7.3c2.1-.4 4.6-.4 5.5-.1 2.7 1.1 39.2 1.2 38.6.2-.3-.5 2.4-.7 6-.4 3.8.2 6.1 0 5.4-.5s.7-.7 3.5-.5c2.6.2 4.4-.1 4-.6-.3-.5 1.1-.7 3.2-.3 2.5.4 3.4.2 3-.5-.5-.7.4-.9 2.4-.6 1.7.2 2.9.2 2.7-.2-.5-.8 10.3-3.2 11.4-2.5.5.3 1.1 0 1.3-.7.2-.6 2-1.2 4-1.2 2-.1 3.4-.4 3.1-.9-.5-.8-3.7-1-4.4-.3m-118.3 3.5c-.4.5.3.7 1.5.4s2.5 0 2.9.7 2.6 1.2 4.9 1.2c2.2 0 4.1.2 4.1.6s2.6.8 5.8.8c5.2.1 4.8 0-5.3-2.2-12.9-2.6-13.2-2.7-13.9-1.5m221.9 17.6c-2.2 1.3-5.3 3.2-7 4.1-1.6.9-6 3.7-9.6 6-3.6 2.4-7.3 4.4-8.1 4.4-1.7 0-5.5 2.6-4.8 3.3s10.3-4.2 17.6-8.9c3.3-2.1 8.4-5.4 11.2-7.2 2.9-1.9 5.2-3.6 5.2-3.8 0-.6-.2-.5-4.5 2.1m-1.3 12.9c-6.4 4-6.6 4.2-4.2 4.2 1 0 1.6-.4 1.4-.8-.5-.8 1.1-1.2 2.9-.9.5.1.5-.4.1-1-.5-.9-.2-1 1-.6 1 .4 1.5.3 1.1-.3-.3-.6-.2-1 .2-1 .5 0 1.8-.7 2.9-1.5 3.5-2.6 0-1.4-5.4 1.9m-272.6 4.8c.7 1.1 13.5 7 14 6.5.2-.2-3-1.9-7.1-3.9s-7.2-3.2-6.9-2.6m259.4 3c-5.2 3-6.1 4.3-1.4 2 2.3-1.2 4.4-1.8 4.8-1.5.3.4.6-.1.6-1 0-1-.1-1.7-.2-1.6-.2 0-1.9 1-3.8 2.1m-27 1.5c-6.8 2.5-7.6 3-6.8 3.8.4.5 14.6-5 15.7-6 1-1.1-2.7-.1-8.9 2.2m13 5.5c-4.7 2.7-6.3 4.4-2.2 2.4 1.8-.9 3.8-1.4 4.4-1q1.05.75.3-.6c-.6-1-.4-1.2.8-.7 1.1.4 1.4.2 1-.9-.3-.7-.6-1.4-.7-1.3 0 0-1.7 1-3.6 2.1m-26.5.5c-3 .7-13.5 4.3-17.7 6.1-7 3-3.1 2.3 7.8-1.4 12.8-4.2 17.4-6.4 9.9-4.7M547 860.4c0 .7 27.6 9.2 36 11 8.5 1.8 10 2 10 .8 0-.5-3.3-1.4-7.2-2-4-.6-8.4-1.4-9.8-1.8-1.4-.3-3.6-.8-5-1.1-1.4-.2-3.4-.9-4.5-1.3-8.4-3.8-19.5-7-19.5-5.6m160.2 8.2c-2.4.7-6 1.5-8 1.8s-4.6.7-5.7 1c-1.1.2-2.8.5-3.7.5-1 .1-1.8.6-1.8 1.1 0 1.2 2.8.8 16.5-2.5 4.9-1.1 8.5-2.3 8-2.6-.6-.3-2.9 0-5.3.7m-96.9 6.8c0 2 9 2.5 36.2 1.9 20.9-.4 37.8-1.7 31-2.3-6.7-.6-8.3-.6-7.9.2.3.5-1.6.8-4.3.8-2.6-.1-15.6-.1-28.8-.1-14.7 0-24.1-.3-24.3-.9-.5-1.5-1.9-1.2-1.9.4m38.2 13.6c4 1 7.5 1.2 7.5.2 0-.4-2.4-.8-5.3-.9-4.2-.1-4.6 0-2.2.7"/></g><path fill="#ffa" d="M758.6 419.6c-1.5 1.7-2.5 3.7-2.2 4.7.2.9 0 1.4-.5 1.1-.6-.3-1.6-.1-2.3.5s-3.1 1.7-5.2 2.5c-2.4.9-3.1 1.5-1.9 1.5 1.1.1 3 .8 4.2 1.6 1.8 1.3 2.2 1.3 3.3 0 .6-.7 1.8-1.1 2.5-.8.9.3 1.6-.4 2-2s1.2-2.4 2.3-2.2c.9.2 1.7.4 1.7.5s1.7.3 3.8.5c2.2.2 4.6 1.3 5.6 2.3 1.6 2 2.5 1.6 4.4-1.5.6-.9.3-1.1-.7-.7-.9.3-1.6 1-1.6 1.6 0 .5-.5.6-1 .3-.6-.4-.8-1-.5-1.5.3-.4-.7-1.6-2.2-2.5-1.5-1-4.1-3.3-5.8-5.3l-3.2-3.4zM647 473.5c-1.4.8-3.2 1.7-4 2.1-8.8 3.8-9.8 4.7-6 5.7 1.1.3 1.8.1 1.5-.3-.6-1 9-2.4 10.5-1.5.5.3 1 .2 1-.4 0-.5.6-1.1 1.3-1.4.6-.2.4-.3-.6-.1-2.6.4-3.4-2.6-1.2-4.2 2.5-1.8.7-1.8-2.5.1m17 3.6c0 .5-.4.8-.9.5s-1.5.2-2.2 1.2c-1.3 1.5-1.2 1.6.4.3 2.1-1.7 2.3.2.1 2-.8.7-2.2 2.6-3.1 4.3-.8 1.7-2.3 4-3.2 5.1-.9 1.2.9-.6 3.9-3.8 3-3.3 5.6-7 5.8-8.3.1-1.3 0-2.4-.3-2.4s-.5.5-.5 1.1m-168.8 18.3c-.4.6-.7 1.5-.7 2.1-.1.5-.6.9-1.3.7-.7-.1-1.1.4-.9 1 .1.7-.3 1.2-.9 1.1-1.5-.3-4.8 3.4-3.6 4.1 1 .6 8.1-6.3 8.2-7.9 0-.6.4-1 .9-1s1.2-.3 1.5-.6-.1-.6-.9-.6c-.9 0-1.9.5-2.3 1.1m34.2 24.8c3.2 3.8 6 6.8 6.3 6.8.2 0 .1-1-.2-2.1-.6-1.6-.4-2 .6-1.3 1.2.6 1.2.5 0-.9-1.5-1.8-2.6-2.3-1.6-.7 1.5 2.4-1.3.6-5.9-3.8l-5-4.7zM757.3 532c0 3.6.2 5 .4 3.2.2-1.7.2-4.7 0-6.5-.2-1.7-.4-.3-.4 3.3M540 529.7c0 1.2 5.8 6.8 6.5 6.2.2-.3-1.1-2-3-3.8s-3.5-2.9-3.5-2.4m11.1 10.5c.2.2 2.2 1.9 4.4 3.8 2.1 1.9 3.4 2.8 2.7 1.9-.6-.9-.9-1.8-.6-2.2.6-.5-4.7-3.7-6.2-3.7-.4 0-.5.1-.3.2M523.4 563c0 9.1.2 12.8.3 8.2.2-4.5.2-11.9 0-16.5-.1-4.5-.3-.8-.3 8.3m39.1-13.7c3 2.5 3 2.5 1.1 4.6-1.1 1.2-1.5 2.1-1 2.1s1.5-.9 2.2-2c.7-1.2 1.8-1.8 2.5-1.3.9.5.9.4 0-.8-.6-.8-2.6-2.2-4.5-3.3l-3.3-1.8zm244.2 12.9-5.4 5.3 5.1-4.4c2.8-2.4 5.5-4.8 6.1-5.3.5-.4.6-.8.2-.8-.3 0-3 2.4-6 5.2m-249.3 9.6c-1.2.9-3.2 2.4-4.4 3.2s-3.3 2.3-4.6 3.3-2.9 1.5-3.5 1.1c-.7-.4-.9-.3-.5.4.3.6-1.4 2.5-3.9 4.3s-4.5 3.6-4.5 4.1-.4.7-.9.3c-.5-.3-1.3 0-1.6.6-.4.5-1.4.8-2.2.5s-1.1-.2-.8.4c.3.5-.6 1.7-2 2.6-2.6 1.7-3.3 3.4-1.4 3.4 1.5 0 5.6-3.3 5.5-4.4-.1-.5 1.3-1.4 3.1-2 1.7-.6 4.6-2.3 6.5-3.8 1.8-1.5 6.6-5 10.6-7.8 3.9-2.8 7.2-5.7 7.2-6.5 0-1.8 0-1.8-2.6.3m68.8 3.2c-1.3 1.1-2.3 2.3-2.2 2.7 0 .4-.3.8-.7.8-.5 0-2.5 1.3-4.5 2.8-2.1 1.7-4.2 2.6-4.9 2.1-.7-.4-.9-.3-.5.4.8 1.4-2.3 4.4-4 3.8-.8-.3-1.3-.2-1.3.2.4 2.5-.3 3.4-2.1 2.9-1.1-.3-1.8-.2-1.6.2.8 1.3-2.3 4.3-3.9 3.7-.9-.3-1.4-.2-1 .3.3.5-.7 1.9-2.2 3-2 1.4-2.3 2-1.2 2.1.9 0 3.4-1.4 5.5-3.1 2.2-1.7 7.3-5.5 11.4-8.5s9.5-7.1 11.9-9 5-3.3 5.7-3 1.6.1 1.9-.4c.4-.6-.3-1-1.4-1-1 0-2.1-.4-2.3-.9-.1-.5-1.3-.1-2.6.9m161.8 3.1c-4.5 5.2-4.4 5.5.2.8 2-2 4-3.4 4.4-3 .4.3.4 0 0-.7-.9-1.6-.7-1.8-4.6 2.9m-153.4.8c-.5.7-.2 1 .6.9.7-.2 1.2.2 1.1.8-.1.7 8.2 8.8 18.5 18 10.3 9.3 21.8 19.8 25.7 23.4 3.8 3.6 6.1 5.4 5 4.1s-2-2.6-1.9-3c0-.3-1.7-1.9-3.8-3.4s-3.6-3.2-3.3-3.6c.2-.5-.2-1.4-1-2.1s-1.5-1-1.5-.6c0 .8-4.3-2.9-10.1-8.8-2.7-2.7-4.9-4.5-4.9-4.1s-.7.2-1.5-.5-1.3-1.6-1-2c.6-1-4.6-5.6-7.3-6.5-1.2-.3-1.9-1.1-1.6-1.7.4-.7.2-.8-.4-.4-.7.4-2-.6-3.2-2.6-1.1-1.8-2-2.9-2-2.3 0 .5-1.5-.8-3.3-2.9-2.3-2.7-3.6-3.6-4.1-2.7m-278.8 11.4c-.5 1-.7 5.5-.7 10l.2 8.2.8-7.5c1.1-8.6.9-13.7-.3-10.7M745 595c1.4 1.1 3.7 2.5 5.2 3.2s2.5 1.5 2.2 1.9c-.7 1.2 6.6 6.3 7.4 5.3.4-.5.6-.8.4-.7s-2.4-1.8-4.9-4.2c-4.3-4.3-9.4-7.5-11.7-7.5-.6 0 0 .9 1.4 2m26.4 1.2c-5.2 5.8-8 9.3-6.1 7.9 1.9-1.5 10.1-11.1 9.5-11.1-.2 0-1.7 1.5-3.4 3.2m-416.3 16.5c-.1 2.3.4 4.5.9 4.8 1.2.7 1.2-2.9 0-6.5-.7-2.1-.8-1.9-.9 1.7m75.9 19.5c0 6.7.2 11.9.4 11.7.8-1 1.4-23.9.5-23.9-.5 0-.9 5.4-.9 12.2m377.5-8.6c-2.7 1.8-4.3 3.4-3.5 3.4.8-.1 3.3-1.6 5.5-3.5 5.1-4.4 4.4-4.3-2 .1m40.3 3.9c.2 2.5.8 4.5 1.3 4.5.6 0 .7-1.6.3-3.8-.9-5.4-2-5.9-1.6-.7m-52 4.2c-3.1 3.6-3.1 4.6 0 2.4 1.8-1.2 3.2-2.7 3.2-3.2 0-1.5-1.6-1.1-3.2.8M550.5 634c.4.6.6 17 .5 36.6 0 24.3.3 35.4 1 34.9.6-.4 1-12.7 1-36 0-31-.2-35.4-1.6-35.9-.9-.3-1.2-.2-.9.4m145.5 1.2c0 .9 2.1 3.5 4.8 5.8 2.6 2.3 6 5.4 7.5 6.7 1.5 1.4 3 2.3 3.3 2 .8-.8-4.5-5.7-7.2-6.7-1.4-.6-2.8-2-3.3-3.2-.5-1.3-1.8-3.2-3-4.2-1.7-1.6-2.1-1.6-2.1-.4m153.8 7.8c-.4 1.4-.8 3.8-.7 5.5 0 3 0 3 1 .5.6-1.3.9-3.8.7-5.5-.3-2.9-.3-3-1-.5m-418.1 8.6c-.6.7.2 8.5 1 9.4.2.2.3-1.9.2-4.8-.2-2.8-.3-5.2-.4-5.2s-.4.3-.8.6m340.3 1.3c-1.9 1-3.6 2.7-3.8 3.7-.2 1.5.2 1.4 2.2-.9 1.4-1.5 2.9-2.7 3.5-2.7.5 0 1.3-.5 1.6-1 .8-1.4.5-1.3-3.5.9m-250.1 2.3c-.6 1.4-.6 53 0 52 .8-1.3 1.4-52.2.6-52.2-.3 0-.5.1-.6.2m173.6 2.8-11 .6 12.3.2c8 .1 12.1-.2 11.7-.8-.3-.6-.9-.9-1.3-.8s-5.6.5-11.7.8m65.1 7.5c-.9 1.4-2.2 2.5-3 2.5-.7 0-3.3 2-5.7 4.4-2.4 2.5-5.7 4.8-7.3 5.2-1.8.4-2.7.3-2.3-.3.3-.5-1-2.5-3.1-4.4l-3.7-3.4 3.4 3.7c3 3.3 3.3 5.2.5 3-.5-.4-.1.1 1 1.1 2.5 2.3 5.5 1.8 10.2-1.8 6.4-4.9 12.9-11.3 12.3-12-.4-.3-1.4.6-2.3 2m-95.6 2.2c1.8 1.6 4 3.6 4.9 4.5.8 1 2 1.8 2.5 1.8.6 0-1.2-2-3.9-4.5-2.8-2.5-5.4-4.5-5.9-4.5-.4 0 .7 1.2 2.4 2.7m59 0c3.1.3 5.4 1.3 7.5 3.1l3 2.7-2.9-3.3c-2.6-2.8-3.5-3.2-7.5-3l-4.6.1zM680.5 680c-.4.6.8 1 2.9 1 1.9 0 3.8-.5 4.1-1 .4-.6-.8-1-2.9-1-1.9 0-3.8.4-4.1 1m43.5 11.4c0 .5 6.3 6.8 8.6 8.6 1.1.8-.3-.9-3.1-3.8-4.7-5-5.5-5.7-5.5-4.8m33.4 7.9c-3.8 4.1-4.1 4.4-1 1.7 6.6-5.8 6.9-6.1 6.4-6.5-.2-.3-2.6 1.9-5.4 4.8m-91.9-.2c2.2.4 6.3.8 9 .9 4.6 0 5.5.4 11 5.4 3.3 3 7.3 6.2 9 7.2 2.4 1.3 2.2 1-1-1.7-2.2-1.9-5-4.4-6.2-5.6-6.8-6.6-8.5-7.3-17.4-7.2-7.2.1-7.8.3-4.4 1m-211.9 2.5c-.8 2.1-.6 9.4.2 11.7.4 1 .8-1.6.8-5.8 0-4.1-.1-7.5-.2-7.5s-.5.7-.8 1.6m259 0c-1 2.7-.7 3.9.7 2.1 1.1-1.6 1.6-1.5 5.7 1.5 2.6 1.8 3.8 2.3 2.8 1.2-2-2.3-2.4-3.9-.6-2.8.7.4.8.3.4-.5-.4-.6-1.2-.9-1.7-.6-.5.4-1.9-.1-3.1-.9-2.8-2-3.4-2-4.2 0m59.4 1.5c-1.2.8-1.1.9.5.5 1.8-.5 2-.2 1.7 3.9-.3 2.8 0 4.5.7 4.5s1.1-2 1.1-5c0-5.1-.9-6.1-4-3.9m-66.4 5.4c-2.7 2.4-5.3 4.2-5.7 3.9-.4-.2-1 0-1.3.4-.3.5.5.8 1.8.8 3-.2 9.2-4.9 9.9-7.6.3-1.1.4-2 .4-2-.1 0-2.4 2-5.1 4.5m-41.7 3.4c1.8 2.3 3.6 3.9 4 3.5.3-.4 0-.9-.6-1.1-.7-.3-1.3-1.1-1.3-1.8s-1.2-2.1-2.7-3c-2.6-1.8-2.6-1.7.6 2.4m61.4 8c-2.4 2.2-6.2 5.6-8.5 7.6-2.4 2.1-3.4 3.3-2.3 2.7 2.1-1.2 16.3-14.1 15.5-14.1-.3 0-2.4 1.7-4.7 3.8M571.5 724c-.3.5-.3 1 .2 1.1.4.1-.3.4-1.7.9-2.1.6-1.8.7 1.7.8 2.4 0 4-.4 3.7-.9s-1.2-.9-2-.9-1.2-.5-.9-1c.3-.6.4-1 .1-1s-.8.4-1.1 1m180.7 1.6c.8.7 15.9.7 16.6-.1.3-.3-3.4-.5-8.3-.5s-8.6.3-8.3.6m-197.4 1.1c1.7.2 4.7.2 6.5 0 1.7-.2.3-.4-3.3-.4s-5 .2-3.2.4m133.3 7.4c11.2 10.7 10.4 10.2 12 8.2 1.2-1.6 1.2-1.7-.2-.6-1.3 1-2.5.3-7.5-4.8-3.2-3.3-6.8-6.5-7.9-7.1s.5 1.4 3.6 4.3M495 735c-1 .6 1.6.8 7.5.4 5-.4 9.2-.8 9.4-1 1-.9-15.5-.3-16.9.6m22.8-.3c2.9.2 7.4.2 10 0s.2-.3-5.3-.3-7.6.1-4.7.3m67.8.4c2.5 1 9.2 1.1 9.7.1.3-.4-2.2-.7-5.5-.8-3.6 0-5.3.3-4.2.7m38.4-.8c.8.8 34.1 1.7 33.6.9-.3-.4-8-.9-17.3-1.1-9.2-.1-16.6 0-16.3.2m180.6 12.5-11 11.7 9.3-9c7.8-7.6 14.1-14.7 12.9-14.4-.2 0-5.2 5.3-11.2 11.7m-342.7-6.1c3.8 7.2 7.8 12.5 8.4 11 .6-1.7-.8-4.2-2.5-4.2-.7 0-2.4-2.3-3.8-5.2-1.4-2.8-2.8-5.2-3.3-5.2-.4-.1.1 1.6 1.2 3.6M560 742c0 .6 2.5 1 5.8.9 4.3-.1 5.1-.3 3.2-.9-3.6-1.2-9-1.2-9 0m5.8 4.7c3.4.2 9 .2 12.5 0 3.4-.2.6-.3-6.3-.3s-9.7.1-6.2.3m-3 11c3.9.2 10.5.2 14.5 0 3.9-.1.7-.3-7.3-.3s-11.2.2-7.2.3m4 4c2.9.2 7.4.2 10 0s.2-.3-5.3-.3-7.6.1-4.7.3m-127.9 23.5c.7 1 1 1.8.5 1.8-.4 0 .3 1.1 1.6 2.5 1.2 1.3 2.8 2.3 3.4 2.2s1 .4.8 1.1c-.1.8.2 1.1.7.8 1-.6 3.4 1.8 2.6 2.6-.3.2.7 1.5 2.2 2.9 1.5 1.3 2.1 1.6 1.4.6-.7-.9-1-1.7-.5-1.7.4 0-1.4-2.2-4-4.9-2.7-2.8-5.4-4.9-6-4.8-.5.1-1-.3-1.1-1 0-.7-.7-1.8-1.5-2.5-1.2-1.1-1.2-1.1-.1.4m-11.1 7.5c2.2 2.7 5.3 5.9 6.8 7.3s-.1-.8-3.6-4.8c-7.2-8.1-9.4-9.8-3.2-2.5m419.9 9.3c-4.9 5-8.6 9-8.2 9 .6 0 12.9-12 15.9-15.8 3.8-4.5.9-1.9-7.7 6.8m-119.4-4.6c-6.1 3.2-6.5 4.1-.8 1.6 2.8-1.2 5.4-2.5 6-3.1 1.5-1.5-.7-.9-5.2 1.5M650.5 818l-6 .7 5.5.1c3 .1 6.2-.3 7-.8s1.1-.9.5-.8c-.5.1-3.7.4-7 .8m-32.2 1.7c4.8.2 12.5.2 17 0 4.5-.1.6-.3-8.8-.3-9.3 0-13 .2-8.2.3m-147.2 12.6c2.9 2.4 11.9 8.6 11.9 8.3 0-.7-10.7-8.6-11.6-8.6-.4 0-.5.2-.3.3M760 849.1c-3 1.7-4.6 2.7-3.5 2.3 1.1-.3 3.4-1 5.2-1.5 1.7-.5 3.4-1.6 3.7-2.4s.4-1.5.3-1.5c-.1.1-2.7 1.4-5.7 3.1m-264.1-.4c3.7 2.7 14.8 8.7 13.1 7-.8-.8-4.6-3.1-8.5-5.1-3.8-2-5.9-2.9-4.6-1.9m245.1 8.1c-2.5.8-3.9 1.7-3.2 2 1.6.5 8.2-1.7 8.2-2.9 0-.5-.1-.8-.2-.8-.2.1-2.3.8-4.8 1.7m-21.5 7.4c-1.6.5-3.7 1.2-4.5 1.5s-1.9.7-2.5.7c-4.2.5-14.5 3.1-14.5 3.7 0 .4 2.8.1 6.3-.8 3.4-.8 7.6-1.6 9.3-1.9 3.3-.4 10.4-3.1 10.4-3.9 0-.7-.9-.5-4.5.7m29 3c-2.7 1-5.4 2.3-5.9 2.8s1.5 0 4.5-1.1 5.8-2.5 6.4-3c1.1-1.1 1.1-1.1-5 1.3M593 871.7c0 1 7.2 2.8 14.5 3.7 3.5.4 3.8.3 2.3-.8-1-.7-4.4-1.6-7.6-1.9-3.2-.4-6.6-.9-7.5-1.3-.9-.3-1.7-.2-1.7.3m90.9.8c-.5.5-11.1 1.4-16.1 1.5-1.5 0-3 .5-3.4 1.1-.5.8.4 1 3.2.5 3.6-.6 6.9-.9 16.7-1.4 2-.1 3.7-.7 3.7-1.2 0-1-3.3-1.4-4.1-.5m-71.9 2.7c0 .4 5.1.8 11.3.7 6.1 0 10.8-.2 10.2-.4-2.3-.8-21.5-1.1-21.5-.3m38.5.7c1.1.5 4 .5 6.5.1 4.3-.7 4.3-.8-2-.8-4.2-.1-5.8.2-4.5.7"/><path fill="#ffffd4" d="M632.3 331.7c3.7.2 9.6.2 13 0s.4-.3-6.8-.3c-7.1 0-9.9.1-6.2.3M611 333l-4.5.7 4.5.1c2.5 0 5.6-.4 7-.8l2.5-.8H618c-1.4.1-4.5.4-7 .8m232 73.4c.6.6 1.6 1.1 2.3 1.1s1.2.6 1.2 1.4.8 1.5 1.9 1.7c1.5.2 1.4-.2-.8-2.5-1.5-1.5-3.3-2.8-4.2-2.8-1 0-1.2.3-.4 1.1m-179 56.3c-1.4.9-2.8 2.1-3.1 2.6s-1 .9-1.5 1-.9.8-1 1.5c-.2 1.3.3 1.1 5.1-2.3 1.7-1.2 3.1-2.6 3.3-3.3.3-1.6.1-1.5-2.8.5m-9.7 5.5c-1.3.6-2.3 1.4-2.3 1.9 0 .4-1 .6-2.3.5-1.5-.2-2.4.2-2.4 1.1s.7 1.1 2.1.7c4.3-1.4 7.1-3 7.4-4.2.1-.6.1-1.2 0-1.1-.2 0-1.3.5-2.5 1.1M770.5 480c5.5.5 10.3.5 10.8.1.4-.4-4.1-.8-10-.8l-10.8-.1zm-114.3 7c-.9 1.6-2.1 3-2.6 3-.6 0-2.7 1.9-4.7 4.1-2 2.3-4.2 3.8-4.7 3.5-.6-.3-1.3-.2-1.7.4-.3.6.1 1.3 1 1.6 1.2.5 1.3 1 .4 2-.6.8-1.6 1.1-2.2.7s-.7-.1-.2.6c.9 1.6 7.2-4.1 8.6-7.8.5-1.3 1.2-2.1 1.5-1.8.7.7 4.5-3.6 6.3-7.1 1.8-3.3.3-2.7-1.7.8m-17.1 18.3c-.1 1-.6 1.5-1.1 1.2-.6-.4-.9-.1-.8.7.2.7-.3 1.2-.9 1-.7-.1-1.2.1-1.2.5.3 2-.2 2.7-1.1 1.3-.7-1.2-.9-1-.7.8.1 2.1.3 2.1 3.5-1.2 1.9-1.8 3.2-4 2.9-4.7-.4-1-.6-.8-.6.4m-10.6 8.7c-1 1.2-2.5 1.8-3.2 1.6-.7-.3-1.2-.1-1 .3.1.5-3.5 4.5-8 8.8-4.6 4.4-8.3 7.8-8.3 7.6s-5.6 4.1-12.5 9.7c-7.5 6.1-12.9 9.9-13.6 9.4-.8-.4-.9-.3-.5.5.8 1.2-1.1 4.4-2.3 3.7-.3-.2-1.5.6-2.6 1.6-2 2-2 2 .5 1.3 1.4-.4 4.5-2.4 7-4.3 8.9-7.1 17.1-14.2 16.4-14.2-.3 0-.1-.7.6-1.5s1.6-1.2 2.1-.9.9 0 .9-.5c0-.6.6-1.1 1.3-1.1.6 0 3.9-2.6 7.2-5.7s6.3-5.7 6.6-5.7c1.1-.2 12.9-10.8 12.9-11.7 0-1.5-1.6-1-3.5 1.1m-105.1 24c0 5.2.1 7.4.3 4.7.2-2.6.2-6.8 0-9.5-.2-2.6-.3-.4-.3 4.8m17.6-8.8c0 1.3 10.1 10.6 12.5 11.6l3 1.2-3-2.5c-1.6-1.4-2.9-3-2.7-3.6.1-.6-.1-.8-.6-.5s-2.8-1.1-5.1-3c-2.2-2-4.1-3.4-4.1-3.2m16.4 15.7c.3.5 2.3 1.9 4.3 3.1l3.8 2.2-3-3.1c-2.7-2.8-6.4-4.4-5.1-2.2m13.6 16.6c-.7.9-1.9 1.4-2.6 1.1-.8-.3-1.3-.2-1.3.2.4 2.4-.3 3.4-2.1 2.9-1-.3-1.9-.2-1.8.2.2 1.9-.3 3.1-1.4 2.8-.6-.1-1.4.7-1.6 1.7-.4 1.7-.2 1.7 2.7-.3 1.7-1.2 3.8-3.2 4.6-4.4s1.8-2.1 2-2c1.1.6 2.8.3 2.1-.4-.3-.4.6-1.2 2.1-1.9 2.5-1.1 2.5-1.2.7-1.3-1.2-.1-2.7.6-3.4 1.4m229.6 4.5c-2.6 2.2-4.4 4-3.8 4 1 0 10.1-7.9 9.2-8-.3 0-2.7 1.8-5.4 4M632 576.9c0 1.8 2.1 2.3 3.7.9 1.4-1.1 1.6-1.1.8.1-.6 1-.4 1.2.5.6.9-.5 1.1-.4.6.4-.4.6-1.2.9-1.7.6-.5-.4-.9-.1-.9.5 0 .7.6 1 1.4.7.9-.4 2.1.5 3.1 1.9.9 1.4 1.9 2.3 2.2 2s.1-1.2-.5-1.9c-.7-.8-.8-1.7-.4-2.1s0-.6-.8-.4c-.8.1-1.4-.2-1.5-.9 0-.6-.4-1.5-.8-1.9-1.2-1.2-5.7-1.6-5.7-.5m11.8 9.8c.6 1.1 1.8 2.6 2.7 3.3 1.8 1.5 6.8 2.3 5.9.9-.3-.5-.9-.7-1.4-.4s-1.1.1-1.5-.4c-.3-.6-1.9-2-3.6-3.2-2.9-2.1-3.1-2.1-2.1-.2m100.3 6.1c1.9 1 4.4 2.1 5.5 2.5 1.6.6 1.5.4-.5-1.3-1.3-1.1-2.9-2-3.6-2s-2.2-.3-3.2-.6-.2.3 1.8 1.4m-87.2 6.5c1.3 1.4 2.6 2.5 3 2.4.3-.1 2.5 1.6 4.7 3.8 6.6 6.4 9.4 8.6 9.4 7.4 0-.5.6-.7 1.3-.3.8.6.8.3-.1-.9-.8-.9-1.7-1.5-2.2-1.4-1 .3-11-8.2-10.7-9.1.1-.4-.1-.8-.6-.9-.4-.2-2.2-1-4-1.9l-3.2-1.7zm190.8 14.4c-.4.3-.6 3.8-.6 7.7l.2 7.1.7-7.5c.8-7.9.7-8.4-.3-7.3m-161.2 12.9c4.1 3.3 4.2 3.5 6.7 6.7 1.4 2 2.3 2.5 2.8 1.7s-.8-2.6-3.4-4.9c-2.2-2-4.5-4.2-4.9-4.9-.4-.6-1.6-1.2-2.5-1.2-1.3.1-.9.7 1.3 2.6m14.2 12.3c.7 2.6 2.3 4 5.4 4.4 1.3.2 2.4.9 2.4 1.5 0 1.7 2.2 3.5 2.9 2.4.5-.9-3-4.8-4.9-5.4-.5-.2-.8-.8-.7-1.3.2-.6 0-.7-.4-.2-.4.4-1.8-.2-3-1.4l-2.3-2.1zm83.6 1.2c.1.4-2.5 3.3-5.8 6.3s-5.4 5.5-4.7 5.6c.7 0 3.8-2.6 6.8-5.8 3.1-3.1 5.7-5.5 5.9-5.2s.6.2 1-.1c.3-.4-.3-.9-1.4-1.2s-1.9-.1-1.8.4M636 642.4c2.7 3 10 9.1 10 8.3 0-.3-2.8-2.9-6.2-5.8-3.5-2.9-5.2-4.1-3.8-2.5m128.9 14.1c-.1.3-.2 1.1-.3 1.7-.1.7-.8 1.1-1.6 1-.8-.2-1.2 0-.8.4s-.6 2.2-2.3 4.1c-4.8 5.5-2.5 5.1 3.2-.6 2.9-2.8 5-5.4 4.6-5.8-.4-.3-.7-.1-.7.6s-.5.9-1 .6c-.6-.4-.8-1.1-.5-1.6.4-.5.4-.9.1-.9s-.7.2-.7.5m-33 13.9c1.9 1.9 3.7 3.4 3.9 3.1.7-.7-2.8-4.5-5.3-5.7-1.2-.7-.7.3 1.4 2.6m-125.2 54.3c1.8.2 5 .2 7 0 2.1-.2.7-.4-3.2-.4-3.8 0-5.5.2-3.8.4m27.6 0c3.2.2 8.1.2 11 0s.3-.3-5.8-.3c-6 0-8.4.1-5.2.3m-66.6 10.5c.2.5 3.3.7 6.8.6 3.6-.1 6.2-.4 5.9-.7-.9-.9-13.3-.7-12.7.1m38.1-.1c-.7.5 1.9.8 6 .7 4.7-.2 6.5-.5 5.2-1-2.6-1-9.5-.8-11.2.3M569 742c3.6 1.2 7 1.2 7 0 0-.6-2.1-1-4.7-.9-3.9.1-4.3.2-2.3.9m8.5 0c-.4.6 3.1.9 9.2.8 6-.2 8.6-.5 6.8-.9-4.7-1-15.3-1-16 .1m62.5.2c0 .4 2.8.8 6.2.8s5.9-.2 5.7-.4c-.8-.8-11.9-1.2-11.9-.4m19-.1c-2.3.5-.8.6 4.1.3 4.3-.3 8.9 0 10.5.6 2.4.9 2.7.9 1.6-.2-1.5-1.5-10.9-1.9-16.2-.7m-71.2 15.6c2.3.2 6.1.2 8.5 0 2.3-.2.4-.4-4.3-.4s-6.6.2-4.2.4m4 4c6.1.2 16.3.2 22.5 0 6.1-.1 1.1-.3-11.3-.3s-17.4.2-11.2.3M638.5 875c-.4.6 1.1 1 4.1 1 5.4 0 5.5-.7.2-1.5-2.1-.4-3.9-.1-4.3.5m-10.7 14.7c1.7.2 4.7.2 6.5 0 1.7-.2.3-.4-3.3-.4s-5 .2-3.2.4"/><g fill="#fff" stroke-width="0"><path d="M610 324.1c-48.4 5.3-97.1 23.5-134.7 50.1-17.9 12.7-41.3 33.7-51.7 46.5-2.2 2.6 2.6-1.8 10.5-9.8 24.3-24.5 44.7-39.8 71.7-53.7 7.9-4 17.7-8.7 21.9-10.4 4.2-1.6 8.4-3.4 9.2-3.8.9-.5 7.5-2.7 14.7-4.9 72.1-22.6 148-17.6 214.3 14.1 30.3 14.5 62.5 37.7 83 59.6 8.4 9.1 24.7 29.8 32.6 41.7 8.6 12.8 19.9 34.7 26.4 51 2.2 5.5 4 9.5 4.1 9 .1-2.3-8-21.1-15.3-35.5-35.1-69.2-94.7-119-171.2-142.9-15-4.6-17.7-5.3-37.4-8.7-12.8-2.3-18-2.6-42.1-2.9-15.1-.2-31.3.1-36 .6"/><path d="M760.1 412.4c-1.6 5.6-7.4 11.6-14.3 14.9l-5.1 2.4 3.8.7c2 .4 4 .5 4.3.2s-.6-.6-1.9-.7c-2 0-1.6-.5 2.1-2.2 2.5-1.2 4.5-2.5 4.5-2.9s1.7-2.5 3.8-4.6l3.8-3.9 5.4 5.3c3 2.9 6.3 5.5 7.5 5.9 1.1.3 2 1.1 2 1.6s.7.9 1.5.9c2.5 0 1.7-1.7-1.1-2.4-4.4-1.1-13.1-10.9-14.1-15.7l-.8-4.1zm73.7-1.9c1.4 2.5 6.2 7 6.2 5.8 0-.5-1.6-2.5-3.6-4.4-2.1-1.9-3.2-2.6-2.6-1.4m16.6 17.7c2.7 3.2 5.1 5.8 5.3 5.8.7 0-5.3-7.3-7.8-9.5-1.3-1.1-.1.6 2.5 3.7m-434 1.2c-4.1 4.9-9.6 12.6-9 12.6.3 0 3.2-3.6 6.5-8 6.2-8.2 7.5-10.6 2.5-4.6m291.5 3.2c-.7.9-4.6 3.9-8.7 6.6-7.4 5-52.5 32.1-62 37.3-2.9 1.6-5 3-4.8 3.3.3.2 2.8-.9 5.8-2.6 2.9-1.6 8.4-4.6 12.2-6.7 3.8-2.2 6.6-3.3 6.1-2.6q-.75 1.35.6.9c.8-.3 1.4-1 1.4-1.6 0-.7.5-1.3 1-1.4.6-.1 1.6-.8 2.3-1.5.8-.7 1.8-1 2.4-.7.6.4.8.2.5-.3-.4-.6 0-1.4.9-1.7.8-.3 1.2-.2.9.4-1 1.6 1.1 1.2 2.5-.5.7-.8 1.9-1.5 2.6-1.5s2.8-.9 4.6-2 2.7-2 2-2-1-.5-.7-1c.4-.6 1.2-.9 1.8-.8 1.8.3 5.8-2.2 5.2-3.2-.3-.6.1-.7.9-.4.9.3 3.2-1 5.8-3.4 2.4-2.1 4.8-3.7 5.4-3.5s2.8-1.2 4.8-3.2c3.8-3.7 5.2-4.2 5.8-2.4.2.7 1.1-.7 2-3 1.7-4.2 1.1-5.4-1.3-2.5m-123.8 11.5c-18 5.1-39.8 15.2-56.1 25.9-10.2 6.7-26.2 19.3-29.5 23.1-1.1 1.3.3.4 3-1.9 20.4-17.3 34.1-25.7 64.5-39.4 6.5-3 19.1-7.2 27.5-9.2 3.3-.8 4.9-1.4 3.5-1.5-1.4 0-7.2 1.4-12.9 3M876.2 464c.8 1.4 3.4 6 5.7 10.2 2.4 4.3 4.5 7.8 4.8 7.8.7 0-7.9-15.7-10.1-18.3l-1.8-2.2zm-134.6 13.9c1.6 1.5 8.4 2.3 21.9 2.6 10.5.2 11.5.1 5-.5l-8-.6 11.1-.2c6.1-.1 12.7-.5 14.5-.9 3.2-.6 3.3-.5 1.9 1.2s-1.4 1.8.7.7c5.3-2.9 3.2-3.2-22.3-3.2-15.5 0-25.4.4-24.8.9m-95.2 16.4c-25 25.5-67.4 60.8-105.9 88.2-10.9 7.8-29.5 21.8-29.5 22.1 0 .6 3.7-1.9 13.2-9.1 3.7-2.7 8.2-6 10-7.3 11.6-8.1 35.3-25.6 49.4-36.6 4-3 7.5-5.2 7.9-4.8s.5.2.3-.4c-.4-1.5 5.9-6.7 8.4-6.8 1.2-.1 2.4-.8 2.6-1.6.5-1.3.3-1.3-1.4 0-1.8 1.4-1.8 1.4-.5-.3.8-1 2-1.6 2.8-1.3s1.2.2.9-.3c-.6-1 1.8-3.4 2.6-2.6.3.3 1.7-.9 3-2.8 3.2-4.1 19.6-18.2 21.3-18.2 1.8 0 4.6-2.6 3.9-3.6-.3-.5 0-.8.7-.7.7.2 1.8-.8 2.6-2.2.7-1.4 1.3-1.9 1.3-1.2s.5 1 1.1.7c.6-.4.8-1.4.5-2.2s-.2-1.2.3-.9c1 .7 4.4-2.9 4.7-4.9.2-1.5 2.8-4.5 3.9-4.5.3 0 .3.5-.1 1.2s-.3.8.4.4c.6-.4.8-1.4.5-2.2-.4-1 .2-1.7 1.5-2.1 1.2-.3 2.4-1.3 2.7-2.2s2.1-3.3 4.1-5.4 3.4-4 3.2-4.2-7.6 6.9-16.4 15.8m102.3-9.5c6.7 8.8 6.6 8.2 7.3 46.9.3 19.3.8 35.4 1.1 35.7s.4-10.1.2-23.2c-.5-40.5-.9-48.5-2.4-51.7-1.9-4.1-7.1-11.3-8.6-11.9-.7-.3.4 1.6 2.4 4.2m141.4 4.7c0 .5 1.3 3.5 2.9 6.5s2.9 5 2.9 4.5c0-.6-1.3-3.5-2.9-6.5s-2.9-5.1-2.9-4.5m-401.9 13.8c-3.9 4-7.2 7.6-7.2 8.1s1.4-.6 3.1-2.5c1.8-1.9 5.2-5.5 7.8-8.2 2.5-2.6 4.3-4.7 4-4.7-.2 0-3.7 3.3-7.7 7.3m193.9-5.3c0 3.4 5.7 31.1 5.8 28 0-1.4-1.3-8.8-2.8-16.5-1.6-7.7-3-12.9-3-11.5m92.9 39.4v33.5l-3.7.4-3.8.4 4.3.1 4.2.2v-34c0-18.7-.2-34-.5-34s-.5 15-.5 33.4m-253-.9c0 13.7.2 24.6.5 24.4.7-.7.8-47.9.1-48.6-.3-.4-.6 10.5-.6 24.2m378.4-22.9c1.2 3 7.4 23.9 8.1 27.2.4 1.8.9 3.1 1.2 2.9.9-1-8.1-31.7-9.4-31.7-.3 0-.2.7.1 1.6M537 525.4c0 .2 4.8 4.3 10.7 9.2 14.8 12.3 19.3 16.5 18.7 17.5-.3.5.2.6 1.1.2 2-.7 2.7-.1-15.8-15.7-12.7-10.7-14.7-12.2-14.7-11.2m294 17c-13.2 8-31.6 22.2-41.5 32.1-10.9 10.8-26.5 28.5-26.5 30 0 .5 1.5-.8 3.3-2.9 5.2-6.4 13.6-15.5 22.2-24.2 7.5-7.5 10.9-10.6 18.1-16.2 1.6-1.2 5.2-4.1 7.9-6.3 7.6-6.1 21.3-14.1 22.7-13.3.7.4 1 .4.6-.1-.4-.4 0-1.4 1-2.1.9-.7 1.5-1.4 1.2-1.7-.3-.2-4.3 1.9-9 4.7m80.1 8.1c0 .5.8 5.9 2 12 2.6 14.3 3.8 56.4 2 73.9-.7 6.5-1.1 12-.8 12.2 1.3 1.3 3.1-24.7 3-43.6-.1-16.5-.6-24.8-2.2-35.5-1.9-12.6-3.8-21.7-4-19m-294 30c-6.3 5.2-11.9 9.9-12.5 10.6-1.7 2 11.6-8.1 22-16.6 2.6-2.1 3.4-2.4 4.5-1.3.8.8 4.8 4.4 8.9 8.2s9.8 9 12.5 11.6c2.8 2.5 7.7 7.1 11 10 23.4 20.9 57.5 54.1 56.8 55.4-.3.6-.3.8.2.4.4-.4 1.4-.3 2.2.3.7.6 1.3.8 1.3.3 0-1.4-34.8-34.5-72-68.4-6.3-5.8-13.7-12.6-16.5-15.2-2.7-2.6-5.4-4.7-6-4.7-.5 0-6.1 4.3-12.4 9.4M718 590c.8.5 6.8 1 13.3 1 12.3 0 17.2 1.1 19.9 4.6.7 1.1 3.2 3.5 5.3 5.4 2.2 1.9.7.1-3.3-4l-7.2-7.5-14.8-.3c-10.2-.2-14.2.1-13.2.8m209.4 17.5c0 8.8.2 12.3.3 7.7.2-4.6.2-11.8 0-16-.1-4.2-.3-.5-.3 8.3m-81-3.6c.3 1.8.6 5 .6 6.9 0 2.4.3 3.3 1 2.6 1-1-.3-11.1-1.7-12.3-.3-.3-.3.9.1 2.8m-21.9 7.7c-4.4 2.9-12.5 8.2-18 11.8-17.4 11.4-31.1 23-49.5 42.1-13.2 13.7-10.3 11.7 4.9-3.5 6.4-6.3 15.7-14.9 20.6-19 5-4.1 9.2-7.7 9.5-8 2.3-2.6 8.1-6 9.1-5.4q1.05.6.6-.3c-.6-1 26.1-19.3 28.2-19.3 1 0 3.6-2.9 3-3.4-.2-.1-4 2.1-8.4 5"/><path d="M911.3 661.2c-8.5 44.3-30.7 87.6-62.2 121.7-33.6 36.3-80.5 65.2-128.7 79.4-16.2 4.8-33.3 8.5-45.6 9.8-5.7.7-10.6 1.5-11.1 1.8-1.3 1.2 21.4-1.8 33.8-4.5 33.7-7.3 57.5-16.6 89.5-35.2 29.1-16.9 59-43.2 79.6-70.2 10.4-13.6 26.5-42.4 33.4-60 5.2-13.1 11.9-37.5 13.5-48.8 1.2-8.8.1-5.8-2.2 6m-198.8 5c10.5.5 17.6 1.3 18.6 2.1 1 .6 4.1 3.2 7.1 5.6 4.8 3.9 4.7 3.7-1.5-2.3L730 665l-17.3.1-17.2.2zM649 698.5c.7.8 1.8 1.5 2.4 1.5s.4-.5-.4-1c-1-.6 3.5-1 13.8-1H680l6.3 5.7c3.4 3.1 6.6 6.3 7 7s1.3 1.3 2 1.3c.7-.1-2.4-3.5-6.8-7.5l-8-7.5h-16.4c-14.4 0-16.2.2-15.1 1.5m57 8.2-6.5 6.7 6-5.4c5.4-4.9 8.2-8 7.3-8-.2 0-3.3 3-6.8 6.7m53.5 6.9-6 5.6 6.3-5.2c5.4-4.6 6.9-6 6-6-.2 0-3 2.5-6.3 5.6m52.9 6.1c-15.4 18.8-38.2 35.1-71.9 51.4-33.5 16.2-61.9 23.6-99 25.8-31.4 1.9-60.5-1.8-88.5-11.4-4.1-1.4-7-2.1-6.5-1.6 1.8 1.6 25 8.9 34.1 10.6 26.1 5 62.5 5.9 83.4 2.1 1.4-.2 5.4-.7 8.9-1.1 3.5-.3 7.1-1 8-1.5.9-.4 5-1.6 9.1-2.6 17.1-4 37.4-11.6 57-21.3 7.1-3.6 18.9-10.3 23.5-13.6 1.7-1.2 4.2-2.7 5.7-3.4 1.4-.8 4.7-3 7.1-5 2.5-2 7.3-5.9 10.7-8.6 6.7-5.4 17.1-16.1 20.8-21.3 3.4-4.8 2-3.9-2.4 1.5m-196.6 1c6.8.2 17.6.2 24 0 6.4-.1.9-.3-12.3-.3s-18.5.2-11.7.3M589 741.9c-1.4.4 9.5.8 24.3 1 18.4.1 26.7-.1 26.7-.8 0-1.2-46.7-1.4-51-.2m59.9.1c3 .5 7.3.5 9.5 0 3.2-.6 2.1-.8-5.4-.8-8.6 0-9 .1-4.1.8m-145.3 15.3c.5 1.1 2.5 2.7 12.3 9.8 4.3 3.1 15.1 9.2 15.1 8.6 0-.3-3.2-2.4-7.2-4.8s-10.2-6.7-14-9.6c-3.7-2.9-6.5-4.7-6.2-4m36.4-.6c0 .5 24 .8 53.4.8s53.8-.3 54.2-.8c.4-.4-23.6-.7-53.4-.7s-54.2.3-54.2.7m-93.8 36.8c4.8 4.9 8.9 8.7 9.1 8.5.2-.3-3.8-4.3-8.7-8.9l-9.1-8.5zm10.4 10.3c9 7.7 14.7 12.5 18.4 15.1 7.1 5 22.9 15.4 29.5 19.3 8.2 4.9 30.1 15.8 31.7 15.8.7 0-5.9-3.6-14.7-7.9-17.6-8.7-42-24.4-55.7-35.9-4.8-3.9-9-7.2-9.4-7.2-.5 0-.4.4.2.8m91.4 54.6c0 .6 16.5 5.9 26 8.5 11.1 3 29.8 6.3 32.8 5.8 2.5-.4 2.4-.4-.4-.6-8.1-.3-33.8-6.3-47.8-11.1-8.9-3-10.6-3.4-10.6-2.6m73.7 16.3c1.8.2 5 .2 7 0 2.1-.2.7-.4-3.2-.4-3.8 0-5.5.2-3.8.4m26.6 0c2.6.2 6.7.2 9 0s.2-.3-4.8-.3c-4.9 0-6.8.1-4.2.3"/></g></svg>